<svg width="300" height="300" viewBox="0 0 300 300" fill="none" xmlns="http://www.w3.org/2000/svg">
<rect width="300" height="300" fill="url(#paint0_linear_709_8552)"/>
<path d="M50.996 165V164.26L55.51 163.52V114.088L50.996 113.348V112.608H68.608V113.348L64.02 114.088V163.89H78.672C79.8067 163.89 80.7933 163.569 81.632 162.928C82.52 162.287 83.2847 161.275 83.926 159.894C84.5673 158.513 85.1347 156.687 85.628 154.418L87.034 145.094H88.292L90.438 165H50.996ZM121.819 165.592C114.715 165.592 109.338 163.643 105.687 159.746C102.086 155.849 100.285 150.101 100.285 142.504V114.236L95.7712 113.348V112.608H113.679V113.348L108.795 114.236V141.616C108.795 148.473 110.127 153.653 112.791 157.156C115.505 160.659 119.501 162.41 124.779 162.41C129.565 162.41 133.166 160.831 135.583 157.674C138.05 154.467 139.283 149.756 139.283 143.54V132.218C139.283 130.097 139.037 128.049 138.543 126.076C138.05 124.103 137.31 122.302 136.323 120.674C135.337 119.046 134.128 117.615 132.697 116.382C131.267 115.099 129.639 114.088 127.813 113.348V112.608H145.795V113.348L140.615 114.236V142.134C140.615 149.83 139.061 155.676 135.953 159.672C132.845 163.619 128.134 165.592 121.819 165.592ZM181.93 165V164.26L187.258 163.298L153.884 114.31L148.778 113.348V112.608H168.906V113.348L163.652 114.236L197.1 163.298L202.132 164.26V165H181.93ZM148.556 165V164.26L153.662 163.372L171.57 139.544L173.42 142.356H170.904L164.096 151.68C163.158 152.913 162.492 154.048 162.098 155.084C161.703 156.12 161.506 157.082 161.506 157.97C161.506 159.647 162.196 161.053 163.578 162.188C165.008 163.273 167.105 163.964 169.868 164.26V165H148.556ZM177.49 135.03H179.488L186.592 125.484C187.726 124.152 188.516 122.993 188.96 122.006C189.404 121.019 189.626 120.156 189.626 119.416C189.626 118.331 189.33 117.369 188.738 116.53C188.146 115.691 187.258 115.001 186.074 114.458C184.939 113.866 183.484 113.496 181.708 113.348V112.608H202.206V113.348L197.692 114.236L179.118 137.472L177.49 135.03ZM65.2357 191.285C64.9064 191.285 64.596 191.196 64.3047 191.019C64.026 190.854 63.741 190.569 63.4497 190.164C63.1584 189.759 62.829 189.208 62.4617 188.511C62.2337 188.068 61.993 187.656 61.7397 187.276C61.499 186.896 61.233 186.541 60.9417 186.212C60.663 185.883 60.3464 185.579 59.9917 185.3C59.6497 185.009 59.2697 184.73 58.8517 184.464H57.8827V190.563L59.0417 190.81V191H54.5387V190.81L55.6977 190.563V177.985L54.5387 177.738V177.548H57.8827V184.198C58.0854 184.198 58.2817 184.192 58.4717 184.179C58.6617 184.166 58.8517 184.154 59.0417 184.141C59.4344 184.103 59.808 183.976 60.1627 183.761C60.5174 183.546 60.8467 183.273 61.1507 182.944C61.4674 182.602 61.7524 182.241 62.0057 181.861C62.221 181.506 62.4047 181.152 62.5567 180.797C62.7214 180.43 62.8417 180.081 62.9177 179.752C63.0064 179.423 63.0507 179.131 63.0507 178.878C63.0507 178.536 62.9367 178.264 62.7087 178.061C62.4807 177.846 62.1324 177.738 61.6637 177.738V177.548H66.2237V177.738L65.1027 177.985C65.1027 178.403 65.0267 178.846 64.8747 179.315C64.7227 179.771 64.5137 180.233 64.2477 180.702C63.9944 181.171 63.684 181.608 63.3167 182.013C62.9494 182.431 62.544 182.798 62.1007 183.115C61.67 183.432 61.2457 183.691 60.8277 183.894C60.4224 184.097 60.0424 184.223 59.6877 184.274V184.369C60.2704 184.394 60.7834 184.47 61.2267 184.597C61.6827 184.724 62.088 184.914 62.4427 185.167C62.7974 185.408 63.114 185.724 63.3927 186.117C63.6714 186.497 63.9374 186.959 64.1907 187.504C64.52 188.239 64.805 188.828 65.0457 189.271C65.2864 189.702 65.5144 190.031 65.7297 190.259C65.945 190.474 66.154 190.614 66.3567 190.677C66.4834 190.715 66.6164 190.715 66.7557 190.677V190.867C66.591 190.994 66.42 191.082 66.2427 191.133C66.0654 191.196 65.888 191.234 65.7107 191.247C65.546 191.272 65.3877 191.285 65.2357 191.285ZM72.4938 177.548V177.738L71.3348 177.985V190.563L72.4938 190.81V191H67.9908V190.81L69.1498 190.563V177.985L67.9908 177.738V177.548H72.4938ZM78.1126 191V190.81L79.2716 190.563V177.833H77.3906C77.0486 177.833 76.7446 177.909 76.4786 178.061C76.2253 178.2 76.0163 178.435 75.8516 178.764C75.687 179.093 75.5603 179.537 75.4716 180.094L75.0726 182.602H74.7496L74.1986 177.548H86.5486L85.9976 182.602H85.6746L85.2756 180.17C85.1996 179.587 85.0793 179.131 84.9146 178.802C84.75 178.46 84.5346 178.213 84.2686 178.061C84.0153 177.909 83.7113 177.833 83.3566 177.833H81.4566V190.563L82.6346 190.81V191H78.1126ZM99.6217 188.473C99.2164 189.119 98.735 189.651 98.1777 190.069C97.633 190.474 97.0314 190.778 96.3727 190.981C95.7267 191.184 95.0427 191.285 94.3207 191.285C93.396 191.285 92.5474 191.133 91.7747 190.829C91.0147 190.512 90.3497 190.056 89.7797 189.461C89.2224 188.853 88.7917 188.125 88.4877 187.276C88.1837 186.415 88.0317 185.433 88.0317 184.331C88.0317 183.267 88.1837 182.304 88.4877 181.443C88.8044 180.582 89.2477 179.841 89.8177 179.22C90.4004 178.587 91.0907 178.105 91.8887 177.776C92.6994 177.434 93.605 177.263 94.6057 177.263C95.3277 177.263 96.0054 177.333 96.6387 177.472C97.272 177.611 97.842 177.808 98.3487 178.061C98.868 178.314 99.2987 178.606 99.6407 178.935L98.6527 183.875H98.3107L98.0257 181.12C97.9497 180.297 97.7597 179.625 97.4557 179.106C97.1517 178.574 96.7274 178.181 96.1827 177.928C95.6507 177.662 94.9794 177.529 94.1687 177.529C93.586 177.529 93.0477 177.687 92.5537 178.004C92.0597 178.321 91.6354 178.764 91.2807 179.334C90.9387 179.891 90.6727 180.544 90.4827 181.291C90.2927 182.038 90.1977 182.843 90.1977 183.704C90.1977 184.629 90.3054 185.49 90.5207 186.288C90.7487 187.086 91.0844 187.783 91.5277 188.378C91.971 188.961 92.5284 189.417 93.1997 189.746C93.871 190.075 94.6564 190.24 95.5557 190.24C96.3284 190.24 97.0504 190.075 97.7217 189.746C98.393 189.417 98.963 188.948 99.4317 188.34L99.6217 188.473ZM115.117 177.548V177.738L113.958 177.985V190.563L115.117 190.81V191H110.69V190.81L111.773 190.563V177.985L110.69 177.738V177.548H115.117ZM106.206 177.548V177.738L105.123 177.985V190.563L106.206 190.81V191H101.779V190.81L102.938 190.563V177.985L101.779 177.738V177.548H106.206ZM111.906 184.293V184.711H104.971V184.521L111.906 184.293ZM117.161 191V190.81L118.32 190.525V178.023L117.161 177.738V177.548H127.877L127.231 182.298H126.984L126.376 179.239C126.262 178.745 126.065 178.39 125.787 178.175C125.508 177.947 125.166 177.833 124.761 177.833H120.505V184.027H122.709C122.886 184.027 123.051 183.983 123.203 183.894C123.355 183.793 123.488 183.672 123.602 183.533C123.779 183.33 123.918 183.045 124.02 182.678C124.134 182.311 124.203 181.912 124.229 181.481H124.419V186.212H124.229L122.956 184.274H120.505V190.715H124.951C125.381 190.715 125.742 190.569 126.034 190.278C126.325 189.987 126.528 189.55 126.642 188.967L126.984 186.041H127.231L127.877 191H117.161ZM129.979 191V190.81L131.309 190.563V179.277C131.309 178.986 131.189 178.701 130.948 178.422C130.707 178.131 130.384 177.903 129.979 177.738V177.548H132.943L141.493 188.416H141.74V182.355C141.74 181.912 141.702 181.487 141.626 181.082C141.55 180.677 141.423 180.303 141.246 179.961C141.081 179.606 140.872 179.283 140.619 178.992C140.366 178.701 140.062 178.454 139.707 178.251C139.365 178.036 138.972 177.865 138.529 177.738V177.548H143.469V177.738L142.025 177.985V191H140.847L131.841 179.6H131.594V185.338C131.594 185.87 131.632 186.37 131.708 186.839C131.797 187.295 131.93 187.726 132.107 188.131C132.284 188.524 132.512 188.891 132.791 189.233C133.07 189.562 133.405 189.86 133.798 190.126C134.191 190.392 134.653 190.62 135.185 190.81V191H129.979ZM163.264 188.473C162.859 189.119 162.378 189.651 161.82 190.069C161.276 190.474 160.674 190.778 160.015 190.981C159.369 191.184 158.685 191.285 157.963 191.285C157.039 191.285 156.19 191.133 155.417 190.829C154.657 190.512 153.992 190.056 153.422 189.461C152.865 188.853 152.434 188.125 152.13 187.276C151.826 186.415 151.674 185.433 151.674 184.331C151.674 183.267 151.826 182.304 152.13 181.443C152.447 180.582 152.89 179.841 153.46 179.22C154.043 178.587 154.733 178.105 155.531 177.776C156.342 177.434 157.248 177.263 158.248 177.263C158.97 177.263 159.648 177.333 160.281 177.472C160.915 177.611 161.485 177.808 161.991 178.061C162.511 178.314 162.941 178.606 163.283 178.935L162.295 183.875H161.953L161.668 181.12C161.592 180.297 161.402 179.625 161.098 179.106C160.794 178.574 160.37 178.181 159.825 177.928C159.293 177.662 158.622 177.529 157.811 177.529C157.229 177.529 156.69 177.687 156.196 178.004C155.702 178.321 155.278 178.764 154.923 179.334C154.581 179.891 154.315 180.544 154.125 181.291C153.935 182.038 153.84 182.843 153.84 183.704C153.84 184.629 153.948 185.49 154.163 186.288C154.391 187.086 154.727 187.783 155.17 188.378C155.614 188.961 156.171 189.417 156.842 189.746C157.514 190.075 158.299 190.24 159.198 190.24C159.971 190.24 160.693 190.075 161.364 189.746C162.036 189.417 162.606 188.948 163.074 188.34L163.264 188.473ZM164.643 191V190.81L165.821 190.563L170.913 177.548H172.357L177.373 190.563L178.532 190.81V191H173.687V190.848L175.036 190.582L170.723 179.315H170.514L168.158 185.585C167.93 186.155 167.752 186.7 167.626 187.219C167.512 187.738 167.455 188.194 167.455 188.587C167.455 189.018 167.531 189.404 167.683 189.746C167.847 190.088 168.107 190.354 168.462 190.544C168.816 190.721 169.279 190.81 169.849 190.81V191H164.643ZM167.911 185.528V185.338L173.212 185.129V185.528H167.911ZM186.299 177.548C187.287 177.548 188.111 177.668 188.769 177.909C189.441 178.137 189.941 178.479 190.27 178.935C190.612 179.391 190.783 179.967 190.783 180.664C190.783 181.196 190.663 181.658 190.422 182.051C190.194 182.444 189.897 182.767 189.529 183.02C189.162 183.273 188.75 183.47 188.294 183.609C187.838 183.736 187.389 183.812 186.945 183.837V183.989C187.515 184.002 188.073 184.078 188.617 184.217C189.162 184.344 189.65 184.54 190.08 184.806C190.511 185.072 190.853 185.42 191.106 185.851C191.36 186.269 191.486 186.788 191.486 187.409C191.486 188.017 191.372 188.549 191.144 189.005C190.929 189.448 190.606 189.822 190.175 190.126C189.745 190.417 189.206 190.639 188.56 190.791C187.914 190.93 187.161 191 186.299 191H179.801V190.81L180.96 190.525V178.023L179.801 177.738V177.548H186.299ZM185.824 177.852C185.204 177.852 184.672 177.865 184.228 177.89C183.785 177.903 183.424 177.934 183.145 177.985V190.582C183.627 190.671 184.545 190.715 185.9 190.715C186.622 190.715 187.243 190.601 187.762 190.373C188.294 190.145 188.7 189.778 188.978 189.271C189.27 188.752 189.415 188.087 189.415 187.276C189.415 186.199 189.124 185.408 188.541 184.901C187.971 184.382 187.047 184.109 185.767 184.084L183.012 184.046V183.837L185.767 183.799C186.477 183.786 187.053 183.653 187.496 183.4C187.952 183.134 188.288 182.767 188.503 182.298C188.731 181.829 188.845 181.285 188.845 180.664C188.845 179.752 188.592 179.055 188.085 178.574C187.579 178.093 186.825 177.852 185.824 177.852ZM197.886 177.548V177.738L196.727 177.985V190.563L197.886 190.81V191H193.383V190.81L194.542 190.563V177.985L193.383 177.738V177.548H197.886ZM199.8 191V190.81L201.13 190.563V179.277C201.13 178.986 201.01 178.701 200.769 178.422C200.529 178.131 200.206 177.903 199.8 177.738V177.548H202.764L211.314 188.416H211.561V182.355C211.561 181.912 211.523 181.487 211.447 181.082C211.371 180.677 211.245 180.303 211.067 179.961C210.903 179.606 210.694 179.283 210.44 178.992C210.187 178.701 209.883 178.454 209.528 178.251C209.186 178.036 208.794 177.865 208.35 177.738V177.548H213.29V177.738L211.846 177.985V191H210.668L201.662 179.6H201.415V185.338C201.415 185.87 201.453 186.37 201.529 186.839C201.618 187.295 201.751 187.726 201.928 188.131C202.106 188.524 202.334 188.891 202.612 189.233C202.891 189.562 203.227 189.86 203.619 190.126C204.012 190.392 204.474 190.62 205.006 190.81V191H199.8ZM214.907 191V190.81L216.066 190.525V178.023L214.907 177.738V177.548H225.623L224.977 182.298H224.73L224.122 179.239C224.008 178.745 223.812 178.39 223.533 178.175C223.254 177.947 222.912 177.833 222.507 177.833H218.251V184.027H220.455C220.632 184.027 220.797 183.983 220.949 183.894C221.101 183.793 221.234 183.672 221.348 183.533C221.525 183.33 221.665 183.045 221.766 182.678C221.88 182.311 221.95 181.912 221.975 181.481H222.165V186.212H221.975L220.702 184.274H218.251V190.715H222.697C223.128 190.715 223.489 190.569 223.78 190.278C224.071 189.987 224.274 189.55 224.388 188.967L224.73 186.041H224.977L225.623 191H214.907ZM231.43 191V190.81L232.589 190.563V177.833H230.708C230.366 177.833 230.062 177.909 229.796 178.061C229.543 178.2 229.334 178.435 229.169 178.764C229.004 179.093 228.878 179.537 228.789 180.094L228.39 182.602H228.067L227.516 177.548H239.866L239.315 182.602H238.992L238.593 180.17C238.517 179.587 238.397 179.131 238.232 178.802C238.067 178.46 237.852 178.213 237.586 178.061C237.333 177.909 237.029 177.833 236.674 177.833H234.774V190.563L235.952 190.81V191H231.43ZM246.966 191.285C246.371 191.285 245.756 191.222 245.123 191.095C244.502 190.981 243.894 190.816 243.299 190.601C242.704 190.373 242.146 190.101 241.627 189.784L242.007 185.509H242.292L243.014 188.093C243.153 188.714 243.413 189.246 243.793 189.689C244.186 190.12 244.667 190.449 245.237 190.677C245.82 190.892 246.472 191 247.194 191C247.853 191 248.416 190.911 248.885 190.734C249.354 190.557 249.708 190.297 249.949 189.955C250.202 189.613 250.329 189.214 250.329 188.758C250.329 188.264 250.209 187.827 249.968 187.447C249.727 187.067 249.322 186.7 248.752 186.345C248.182 185.978 247.409 185.591 246.434 185.186C245.269 184.654 244.344 184.166 243.66 183.723C242.976 183.267 242.488 182.805 242.197 182.336C241.906 181.867 241.76 181.348 241.76 180.778C241.76 180.259 241.88 179.784 242.121 179.353C242.362 178.922 242.704 178.555 243.147 178.251C243.603 177.934 244.148 177.694 244.781 177.529C245.414 177.352 246.13 177.263 246.928 177.263C247.637 177.263 248.309 177.333 248.942 177.472C249.575 177.599 250.152 177.776 250.671 178.004C251.19 178.232 251.627 178.492 251.982 178.783L251.355 182.754H251.089L250.747 181.063C250.557 180.24 250.285 179.568 249.93 179.049C249.575 178.53 249.132 178.15 248.6 177.909C248.081 177.668 247.46 177.548 246.738 177.548C246.041 177.548 245.446 177.637 244.952 177.814C244.458 177.979 244.078 178.219 243.812 178.536C243.546 178.853 243.413 179.239 243.413 179.695C243.413 180.151 243.546 180.569 243.812 180.949C244.091 181.329 244.547 181.715 245.18 182.108C245.826 182.501 246.694 182.931 247.783 183.4C248.644 183.755 249.36 184.097 249.93 184.426C250.513 184.755 250.981 185.085 251.336 185.414C251.691 185.743 251.944 186.092 252.096 186.459C252.261 186.826 252.343 187.232 252.343 187.675C252.343 188.169 252.248 188.612 252.058 189.005C251.868 189.398 251.602 189.74 251.26 190.031C250.918 190.31 250.519 190.544 250.063 190.734C249.62 190.924 249.132 191.063 248.6 191.152C248.081 191.241 247.536 191.285 246.966 191.285Z" fill="#FDF2F6"/>
<circle cx="231" cy="151" r="3" fill="white"/>
<circle cx="231" cy="128" r="3" fill="white"/>
<path d="M210 160.5H207.5V165.5H210V160.5ZM252 165.5C253.381 165.5 254.5 164.381 254.5 163C254.5 161.619 253.381 160.5 252 160.5V165.5ZM210 165.5H252V160.5H210V165.5Z" fill="white"/>
<path d="M210 136.5H207.5V141.5H210V136.5ZM252 141.5C253.381 141.5 254.5 140.381 254.5 139C254.5 137.619 253.381 136.5 252 136.5V141.5ZM210 141.5H252V136.5H210V141.5Z" fill="white"/>
<path d="M210 113.5H207.5V118.5H210V113.5ZM252 118.5C253.381 118.5 254.5 117.381 254.5 116C254.5 114.619 253.381 113.5 252 113.5V118.5ZM210 118.5H252V113.5H210V118.5Z" fill="white"/>
<defs>
<linearGradient id="paint0_linear_709_8552" x1="0" y1="150" x2="300" y2="150" gradientUnits="userSpaceOnUse">
<stop stop-color="#4F0816"/>
<stop offset="1" stop-color="#841730"/>
</linearGradient>
</defs>
</svg>
