<svg width="48" height="49" viewBox="0 0 48 49" fill="none" xmlns="http://www.w3.org/2000/svg">
<circle cx="24" cy="35" r="3" fill="white"/>
<circle cx="24" cy="14" r="3" fill="white"/>
<path d="M3 43.5H0.5V48.5H3V43.5ZM45 48.5C46.3807 48.5 47.5 47.3807 47.5 46C47.5 44.6193 46.3807 43.5 45 43.5V48.5ZM3 48.5H45V43.5H3V48.5Z" fill="white"/>
<path d="M3 21.5H0.5V26.5H3V21.5ZM45 26.5C46.3807 26.5 47.5 25.3807 47.5 24C47.5 22.6193 46.3807 21.5 45 21.5V26.5ZM3 26.5H45V21.5H3V26.5Z" fill="white"/>
<path d="M3 0.5H0.5V5.5H3V0.5ZM45 5.5C46.3807 5.5 47.5 4.38071 47.5 3C47.5 1.61929 46.3807 0.5 45 0.5V5.5ZM3 5.5H45V0.5H3V5.5Z" fill="white"/>
</svg>
