<svg width="846" height="504" viewBox="0 0 846 504" fill="none" xmlns="http://www.w3.org/2000/svg">
<path d="M107.584 0L691.552 80.2428L846 482.53L0 504L107.584 0Z" fill="#F0ECE4"/>
<path d="M313 118V235.968V351H534V235.968V120.937H334.803" stroke="#1D1915" stroke-width="6"/>
<path d="M335 118V173H511" stroke="#1D1915" stroke-width="6"/>
<path d="M335 222V277H511" stroke="#1D1915" stroke-width="6"/>
<path d="M511 170V225H335" stroke="#1D1915" stroke-width="6"/>
<path d="M511 274V329H335" stroke="#1D1915" stroke-width="6"/>
<circle cx="423" cy="146" r="5.5" fill="#1D1915" stroke="#1D1915"/>
<circle cx="423" cy="198" r="5.5" fill="#1D1915" stroke="#1D1915"/>
<circle cx="423" cy="250" r="5.5" fill="#1D1915" stroke="#1D1915"/>
<circle cx="423" cy="302" r="5.5" fill="#1D1915" stroke="#1D1915"/>
<path d="M115.52 403.48C110.432 403.48 106.576 402.088 103.952 399.304C101.36 396.52 100.064 392.76 100.064 388.024C100.064 384.632 100.608 381.72 101.696 379.288C102.816 376.824 104.512 374.936 106.784 373.624C109.056 372.28 111.952 371.608 115.472 371.608C117.264 371.608 118.896 371.752 120.368 372.04C121.872 372.296 123.264 372.648 124.544 373.096V377.656C123.264 377.144 121.888 376.76 120.416 376.504C118.976 376.216 117.456 376.072 115.856 376.072C112.016 376.072 109.296 377.096 107.696 379.144C106.128 381.192 105.344 384.152 105.344 388.024C105.344 391.64 106.208 394.392 107.936 396.28C109.664 398.136 112.336 399.064 115.952 399.064C117.424 399.064 118.896 398.952 120.368 398.728C121.872 398.472 123.28 398.088 124.592 397.576V402.184C123.312 402.6 121.92 402.92 120.416 403.144C118.944 403.368 117.312 403.48 115.52 403.48ZM142.865 403.48C138.609 403.48 135.297 402.456 132.929 400.408C130.593 398.36 129.425 395.4 129.425 391.528V372.088H134.657V391.336C134.657 393.928 135.361 395.864 136.769 397.144C138.209 398.424 140.241 399.064 142.865 399.064C145.457 399.064 147.457 398.424 148.865 397.144C150.305 395.864 151.025 393.928 151.025 391.336V372.088H156.209V391.528C156.209 395.4 155.041 398.36 152.705 400.408C150.369 402.456 147.089 403.48 142.865 403.48ZM171.368 403.48C167.368 403.48 164.152 402.968 161.72 401.944V397.336C163.096 397.848 164.568 398.264 166.136 398.584C167.736 398.904 169.32 399.064 170.888 399.064C173.352 399.064 175.192 398.776 176.408 398.2C177.656 397.624 178.28 396.472 178.28 394.744C178.28 393.688 178.024 392.84 177.512 392.2C177 391.56 176.152 391.016 174.968 390.568C173.784 390.088 172.152 389.592 170.072 389.08C166.744 388.216 164.408 387.128 163.064 385.816C161.72 384.472 161.048 382.632 161.048 380.296C161.048 377.576 162.04 375.448 164.024 373.912C166.008 372.376 168.968 371.608 172.904 371.608C174.696 371.608 176.376 371.736 177.944 371.992C179.544 372.248 180.792 372.536 181.688 372.856V377.464C179.256 376.536 176.568 376.072 173.624 376.072C171.32 376.072 169.528 376.376 168.248 376.984C166.968 377.592 166.328 378.696 166.328 380.296C166.328 381.224 166.552 381.976 167 382.552C167.448 383.128 168.216 383.624 169.304 384.04C170.424 384.456 171.96 384.92 173.912 385.432C176.44 386.072 178.392 386.84 179.768 387.736C181.176 388.6 182.152 389.624 182.696 390.808C183.272 391.96 183.56 393.272 183.56 394.744C183.56 397.464 182.552 399.608 180.536 401.176C178.52 402.712 175.464 403.48 171.368 403.48ZM194.728 403V376.168H184.84V372.088H209.8V376.168H199.96V403H194.728ZM227.204 403.48C222.308 403.48 218.644 402.2 216.212 399.64C213.78 397.048 212.564 393.048 212.564 387.64C212.564 382.008 213.78 377.928 216.212 375.4C218.644 372.872 222.308 371.608 227.204 371.608C232.132 371.608 235.796 372.872 238.196 375.4C240.628 377.928 241.844 382.008 241.844 387.64C241.844 393.048 240.628 397.048 238.196 399.64C235.796 402.2 232.132 403.48 227.204 403.48ZM227.204 399.064C230.436 399.064 232.804 398.184 234.308 396.424C235.844 394.632 236.612 391.704 236.612 387.64C236.612 383.352 235.844 380.36 234.308 378.664C232.804 376.936 230.436 376.072 227.204 376.072C224.004 376.072 221.636 376.936 220.1 378.664C218.596 380.36 217.844 383.352 217.844 387.64C217.844 391.704 218.596 394.632 220.1 396.424C221.636 398.184 224.004 399.064 227.204 399.064ZM246.946 403V372.088H252.322L262.114 392.104L271.858 372.088H277.234V403H272.05V380.584L263.698 397.672H260.53L252.13 380.584V403H246.946ZM308.833 403.48C303.745 403.48 299.889 402.088 297.265 399.304C294.673 396.52 293.377 392.76 293.377 388.024C293.377 384.632 293.921 381.72 295.009 379.288C296.129 376.824 297.825 374.936 300.097 373.624C302.369 372.28 305.265 371.608 308.785 371.608C310.577 371.608 312.209 371.752 313.681 372.04C315.185 372.296 316.577 372.648 317.857 373.096V377.656C316.577 377.144 315.201 376.76 313.729 376.504C312.289 376.216 310.769 376.072 309.169 376.072C305.329 376.072 302.609 377.096 301.009 379.144C299.441 381.192 298.657 384.152 298.657 388.024C298.657 391.64 299.521 394.392 301.249 396.28C302.977 398.136 305.649 399.064 309.265 399.064C310.737 399.064 312.209 398.952 313.681 398.728C315.185 398.472 316.593 398.088 317.905 397.576V402.184C316.625 402.6 315.233 402.92 313.729 403.144C312.257 403.368 310.625 403.48 308.833 403.48ZM320.143 403L331.951 372.088H337.807L349.519 403H344.143L341.071 395.032H328.639L325.567 403H320.143ZM329.455 391H340.207L334.831 376.84L329.455 391ZM354.665 403V372.088H369.641C372.713 372.088 374.985 372.808 376.457 374.248C377.929 375.688 378.665 377.72 378.665 380.344C378.665 382.008 378.329 383.416 377.657 384.568C376.985 385.688 376.089 386.536 374.969 387.112C376.473 387.528 377.657 388.28 378.521 389.368C379.417 390.424 379.865 391.992 379.865 394.072C379.865 397.08 379.049 399.32 377.417 400.792C375.817 402.264 373.449 403 370.313 403H354.665ZM359.897 385.288H368.921C370.681 385.288 371.929 384.888 372.665 384.088C373.433 383.256 373.817 382.152 373.817 380.776C373.817 379.176 373.433 377.992 372.665 377.224C371.897 376.424 370.457 376.024 368.345 376.024H359.897V385.288ZM359.897 399.16H369.209C371.065 399.16 372.425 398.776 373.289 398.008C374.153 397.208 374.585 395.832 374.585 393.88C374.585 392.28 374.153 391.096 373.289 390.328C372.457 389.528 370.921 389.128 368.681 389.128H359.897V399.16ZM384.946 403V372.088H390.178V403H384.946ZM396.243 403V372.088H400.851L416.979 394.84V372.088H422.163V403H417.555L401.475 380.296V403H396.243ZM428.258 403V372.088H449.81V376.168H433.49V385.528H448.034V389.56H433.49V398.968H449.81V403H428.258ZM462.665 403V376.168H452.777V372.088H477.737V376.168H467.897V403H462.665ZM489.837 403.48C485.837 403.48 482.621 402.968 480.189 401.944V397.336C481.565 397.848 483.037 398.264 484.605 398.584C486.205 398.904 487.789 399.064 489.357 399.064C491.821 399.064 493.661 398.776 494.877 398.2C496.125 397.624 496.749 396.472 496.749 394.744C496.749 393.688 496.493 392.84 495.981 392.2C495.469 391.56 494.621 391.016 493.437 390.568C492.253 390.088 490.621 389.592 488.541 389.08C485.213 388.216 482.877 387.128 481.533 385.816C480.189 384.472 479.517 382.632 479.517 380.296C479.517 377.576 480.509 375.448 482.493 373.912C484.477 372.376 487.437 371.608 491.373 371.608C493.165 371.608 494.845 371.736 496.413 371.992C498.013 372.248 499.261 372.536 500.157 372.856V377.464C497.725 376.536 495.037 376.072 492.093 376.072C489.789 376.072 487.997 376.376 486.717 376.984C485.437 377.592 484.797 378.696 484.797 380.296C484.797 381.224 485.021 381.976 485.469 382.552C485.917 383.128 486.685 383.624 487.773 384.04C488.893 384.456 490.429 384.92 492.381 385.432C494.909 386.072 496.861 386.84 498.237 387.736C499.645 388.6 500.621 389.624 501.165 390.808C501.741 391.96 502.029 393.272 502.029 394.744C502.029 397.464 501.021 399.608 499.005 401.176C496.989 402.712 493.933 403.48 489.837 403.48ZM528.245 403.48C524.917 403.48 522.245 402.76 520.229 401.32C518.213 399.848 517.205 397.896 517.205 395.464C517.205 393.288 517.845 391.448 519.125 389.944C520.437 388.44 522.213 387.08 524.453 385.864C523.205 384.744 522.197 383.64 521.429 382.552C520.693 381.464 520.325 380.184 520.325 378.712C520.325 376.696 521.045 375.016 522.485 373.672C523.925 372.296 525.909 371.608 528.437 371.608C530.933 371.608 532.885 372.264 534.293 373.576C535.733 374.856 536.453 376.568 536.453 378.712C536.453 380.376 536.053 381.8 535.253 382.984C534.453 384.168 533.173 385.336 531.413 386.488L538.517 393.736C539.029 392.648 539.285 391.368 539.285 389.896V389.08H543.269V389.992C543.269 391.208 543.109 392.408 542.789 393.592C542.469 394.744 542.037 395.752 541.493 396.616L545.381 400.552L542.213 403.432L538.757 399.976C537.573 401.192 536.085 402.088 534.293 402.664C532.501 403.208 530.485 403.48 528.245 403.48ZM528.149 384.232C529.525 383.336 530.549 382.536 531.221 381.832C531.893 381.128 532.229 380.168 532.229 378.952C532.229 377.832 531.925 376.952 531.317 376.312C530.741 375.64 529.781 375.304 528.437 375.304C527.061 375.304 526.069 375.656 525.461 376.36C524.853 377.064 524.549 377.928 524.549 378.952C524.549 379.944 524.837 380.84 525.413 381.64C526.021 382.408 526.933 383.272 528.149 384.232ZM528.245 399.832C531.445 399.832 533.893 398.92 535.589 397.096L527.573 388.984C525.781 389.72 524.437 390.6 523.541 391.624C522.677 392.616 522.245 393.864 522.245 395.368C522.245 396.84 522.805 397.96 523.925 398.728C525.045 399.464 526.485 399.832 528.245 399.832ZM575.786 403.48C570.698 403.48 566.842 402.088 564.218 399.304C561.626 396.52 560.33 392.76 560.33 388.024C560.33 384.632 560.874 381.72 561.962 379.288C563.082 376.824 564.778 374.936 567.05 373.624C569.322 372.28 572.218 371.608 575.738 371.608C577.53 371.608 579.162 371.752 580.634 372.04C582.138 372.296 583.53 372.648 584.81 373.096V377.656C583.53 377.144 582.154 376.76 580.682 376.504C579.242 376.216 577.722 376.072 576.122 376.072C572.282 376.072 569.562 377.096 567.962 379.144C566.394 381.192 565.61 384.152 565.61 388.024C565.61 391.64 566.474 394.392 568.202 396.28C569.93 398.136 572.602 399.064 576.218 399.064C577.69 399.064 579.162 398.952 580.634 398.728C582.138 398.472 583.546 398.088 584.858 397.576V402.184C583.578 402.6 582.186 402.92 580.682 403.144C579.21 403.368 577.578 403.48 575.786 403.48ZM589.93 403V372.088H595.162V398.968H611.002V403H589.93ZM627.376 403.48C622.48 403.48 618.816 402.2 616.384 399.64C613.952 397.048 612.736 393.048 612.736 387.64C612.736 382.008 613.952 377.928 616.384 375.4C618.816 372.872 622.48 371.608 627.376 371.608C632.304 371.608 635.968 372.872 638.368 375.4C640.8 377.928 642.016 382.008 642.016 387.64C642.016 393.048 640.8 397.048 638.368 399.64C635.968 402.2 632.304 403.48 627.376 403.48ZM627.376 399.064C630.608 399.064 632.976 398.184 634.48 396.424C636.016 394.632 636.784 391.704 636.784 387.64C636.784 383.352 636.016 380.36 634.48 378.664C632.976 376.936 630.608 376.072 627.376 376.072C624.176 376.072 621.808 376.936 620.272 378.664C618.768 380.36 618.016 383.352 618.016 387.64C618.016 391.704 618.768 394.632 620.272 396.424C621.808 398.184 624.176 399.064 627.376 399.064ZM655.54 403.48C651.54 403.48 648.324 402.968 645.892 401.944V397.336C647.268 397.848 648.74 398.264 650.308 398.584C651.908 398.904 653.492 399.064 655.06 399.064C657.524 399.064 659.364 398.776 660.58 398.2C661.828 397.624 662.452 396.472 662.452 394.744C662.452 393.688 662.196 392.84 661.684 392.2C661.172 391.56 660.324 391.016 659.14 390.568C657.956 390.088 656.324 389.592 654.244 389.08C650.916 388.216 648.58 387.128 647.236 385.816C645.892 384.472 645.22 382.632 645.22 380.296C645.22 377.576 646.212 375.448 648.196 373.912C650.18 372.376 653.14 371.608 657.076 371.608C658.868 371.608 660.548 371.736 662.116 371.992C663.716 372.248 664.964 372.536 665.86 372.856V377.464C663.428 376.536 660.74 376.072 657.796 376.072C655.492 376.072 653.7 376.376 652.42 376.984C651.14 377.592 650.5 378.696 650.5 380.296C650.5 381.224 650.724 381.976 651.172 382.552C651.62 383.128 652.388 383.624 653.476 384.04C654.596 384.456 656.132 384.92 658.084 385.432C660.612 386.072 662.564 386.84 663.94 387.736C665.348 388.6 666.324 389.624 666.868 390.808C667.444 391.96 667.732 393.272 667.732 394.744C667.732 397.464 666.724 399.608 664.708 401.176C662.692 402.712 659.636 403.48 655.54 403.48ZM672.805 403V372.088H694.357V376.168H678.037V385.528H692.581V389.56H678.037V398.968H694.357V403H672.805ZM707.212 403V376.168H697.324V372.088H722.284V376.168H712.444V403H707.212ZM734.384 403.48C730.384 403.48 727.168 402.968 724.736 401.944V397.336C726.112 397.848 727.584 398.264 729.152 398.584C730.752 398.904 732.336 399.064 733.904 399.064C736.368 399.064 738.208 398.776 739.424 398.2C740.672 397.624 741.296 396.472 741.296 394.744C741.296 393.688 741.04 392.84 740.528 392.2C740.016 391.56 739.168 391.016 737.984 390.568C736.8 390.088 735.168 389.592 733.088 389.08C729.76 388.216 727.424 387.128 726.08 385.816C724.736 384.472 724.064 382.632 724.064 380.296C724.064 377.576 725.056 375.448 727.04 373.912C729.024 372.376 731.984 371.608 735.92 371.608C737.712 371.608 739.392 371.736 740.96 371.992C742.56 372.248 743.808 372.536 744.704 372.856V377.464C742.272 376.536 739.584 376.072 736.64 376.072C734.336 376.072 732.544 376.376 731.264 376.984C729.984 377.592 729.344 378.696 729.344 380.296C729.344 381.224 729.568 381.976 730.016 382.552C730.464 383.128 731.232 383.624 732.32 384.04C733.44 384.456 734.976 384.92 736.928 385.432C739.456 386.072 741.408 386.84 742.784 387.736C744.192 388.6 745.168 389.624 745.712 390.808C746.288 391.96 746.576 393.272 746.576 394.744C746.576 397.464 745.568 399.608 743.552 401.176C741.536 402.712 738.48 403.48 734.384 403.48Z" fill="#1D1915"/>
<path d="M142.907 437.644C141.629 437.644 140.693 437.248 140.099 436.456C139.523 435.682 139.217 434.602 139.181 433.216C136.877 433.018 135.158 432.208 134.024 430.786C132.908 429.346 132.35 427.186 132.35 424.306C132.35 421.192 133.007 418.924 134.321 417.502C135.635 416.062 137.651 415.342 140.369 415.342C143.105 415.342 145.121 416.062 146.417 417.502C147.731 418.924 148.388 421.192 148.388 424.306C148.388 427.24 147.812 429.427 146.66 430.867C145.508 432.289 143.735 433.081 141.341 433.243C141.359 434.179 141.503 434.827 141.773 435.187C142.061 435.565 142.583 435.754 143.339 435.754C143.987 435.754 144.626 435.664 145.256 435.484V437.347C144.968 437.419 144.608 437.482 144.176 437.536C143.744 437.608 143.321 437.644 142.907 437.644ZM140.369 431.38C141.683 431.38 142.763 431.155 143.609 430.705C144.473 430.255 145.112 429.517 145.526 428.491C145.958 427.447 146.174 426.052 146.174 424.306C146.174 422.56 145.958 421.174 145.526 420.148C145.112 419.104 144.473 418.357 143.609 417.907C142.763 417.457 141.683 417.232 140.369 417.232C139.055 417.232 137.966 417.457 137.102 417.907C136.256 418.357 135.617 419.104 135.185 420.148C134.771 421.174 134.564 422.56 134.564 424.306C134.564 426.052 134.771 427.447 135.185 428.491C135.617 429.517 136.256 430.255 137.102 430.705C137.966 431.155 139.055 431.38 140.369 431.38ZM158.819 433.27C156.443 433.27 154.625 432.703 153.365 431.569C152.123 430.435 151.502 428.788 151.502 426.628V415.612H153.716V426.655C153.716 428.239 154.157 429.427 155.039 430.219C155.939 430.993 157.199 431.38 158.819 431.38C160.421 431.38 161.663 430.993 162.545 430.219C163.445 429.427 163.895 428.239 163.895 426.655V415.612H166.109V426.628C166.109 428.788 165.479 430.435 164.219 431.569C162.977 432.703 161.177 433.27 158.819 433.27ZM167.998 433L174.613 415.612H177.205L183.793 433H181.525L179.689 428.221H172.129L170.293 433H167.998ZM172.507 426.466H179.284L175.882 417.529L172.507 426.466ZM187.022 433V415.612H189.236V431.272H198.497V433H187.022ZM201.207 433V415.612H203.421V433H201.207ZM211.891 433V417.367H206.113V415.612H219.883V417.367H214.105V433H211.891ZM227.998 433V426.52L221.788 415.612H224.083L229.105 424.63L234.127 415.612H236.422L230.212 426.52V433H227.998ZM251.543 433V426.52L245.333 415.612H247.628L252.65 424.63L257.672 415.612H259.967L253.757 426.52V433H251.543ZM268.382 433.27C265.664 433.27 263.648 432.559 262.334 431.137C261.02 429.697 260.363 427.42 260.363 424.306C260.363 421.192 261.02 418.924 262.334 417.502C263.648 416.062 265.664 415.342 268.382 415.342C271.118 415.342 273.134 416.062 274.43 417.502C275.744 418.924 276.401 421.192 276.401 424.306C276.401 427.42 275.744 429.697 274.43 431.137C273.134 432.559 271.118 433.27 268.382 433.27ZM268.382 431.38C269.696 431.38 270.776 431.155 271.622 430.705C272.486 430.255 273.125 429.517 273.539 428.491C273.971 427.447 274.187 426.052 274.187 424.306C274.187 422.56 273.971 421.174 273.539 420.148C273.125 419.104 272.486 418.357 271.622 417.907C270.776 417.457 269.696 417.232 268.382 417.232C267.068 417.232 265.979 417.457 265.115 417.907C264.269 418.357 263.63 419.104 263.198 420.148C262.784 421.174 262.577 422.56 262.577 424.306C262.577 426.052 262.784 427.447 263.198 428.491C263.63 429.517 264.269 430.255 265.115 430.705C265.979 431.155 267.068 431.38 268.382 431.38ZM286.832 433.27C284.456 433.27 282.638 432.703 281.378 431.569C280.136 430.435 279.515 428.788 279.515 426.628V415.612H281.729V426.655C281.729 428.239 282.17 429.427 283.052 430.219C283.952 430.993 285.212 431.38 286.832 431.38C288.434 431.38 289.676 430.993 290.558 430.219C291.458 429.427 291.908 428.239 291.908 426.655V415.612H294.122V426.628C294.122 428.788 293.492 430.435 292.232 431.569C290.99 432.703 289.19 433.27 286.832 433.27ZM311.79 433.27C309.918 433.27 308.361 432.919 307.119 432.217C305.895 431.497 304.977 430.498 304.365 429.22C303.753 427.924 303.447 426.412 303.447 424.684C303.447 422.794 303.735 421.147 304.311 419.743C304.887 418.339 305.787 417.259 307.011 416.503C308.235 415.729 309.819 415.342 311.763 415.342C312.771 415.342 313.68 415.414 314.49 415.558C315.318 415.702 316.092 415.9 316.812 416.152V418.096C316.092 417.826 315.327 417.619 314.517 417.475C313.707 417.313 312.852 417.232 311.952 417.232C310.386 417.232 309.144 417.529 308.226 418.123C307.308 418.717 306.651 419.572 306.255 420.688C305.859 421.804 305.661 423.136 305.661 424.684C305.661 426.826 306.165 428.482 307.173 429.652C308.199 430.804 309.81 431.38 312.006 431.38C312.816 431.38 313.635 431.317 314.463 431.191C315.309 431.065 316.092 430.867 316.812 430.597V432.568C316.11 432.784 315.345 432.955 314.517 433.081C313.707 433.207 312.798 433.27 311.79 433.27ZM318.423 433L325.038 415.612H327.63L334.218 433H331.95L330.114 428.221H322.554L320.718 433H318.423ZM322.932 426.466H329.709L326.307 417.529L322.932 426.466ZM337.447 433V415.612H339.445L349.354 429.598V415.612H351.568V433H349.543L339.661 419.041V433H337.447ZM366.271 433V417.367H360.493V415.612H374.263V417.367H368.485V433H366.271ZM376.971 433V415.612H384.612C386.484 415.612 387.843 416.098 388.689 417.07C389.553 418.042 389.985 419.356 389.985 421.012C389.985 422.29 389.67 423.352 389.04 424.198C388.428 425.044 387.51 425.611 386.286 425.899C386.646 426.115 386.916 426.367 387.096 426.655C387.294 426.925 387.492 427.294 387.69 427.762L389.958 433H387.69L385.476 427.951C385.242 427.411 384.954 427.024 384.612 426.79C384.288 426.556 383.703 426.439 382.857 426.439H379.185V433H376.971ZM379.185 424.711H383.991C385.161 424.711 386.079 424.423 386.745 423.847C387.429 423.253 387.771 422.308 387.771 421.012C387.771 418.582 386.61 417.367 384.288 417.367H379.185V424.711ZM400.395 433.27C398.019 433.27 396.201 432.703 394.941 431.569C393.699 430.435 393.078 428.788 393.078 426.628V415.612H395.292V426.655C395.292 428.239 395.733 429.427 396.615 430.219C397.515 430.993 398.775 431.38 400.395 431.38C401.997 431.38 403.239 430.993 404.121 430.219C405.021 429.427 405.471 428.239 405.471 426.655V415.612H407.685V426.628C407.685 428.788 407.055 430.435 405.795 431.569C404.553 432.703 402.753 433.27 400.395 433.27ZM416.431 433.27C414.271 433.27 412.525 433 411.193 432.46V430.489C411.949 430.777 412.75 431.002 413.596 431.164C414.46 431.308 415.342 431.38 416.242 431.38C417.79 431.38 418.951 431.173 419.725 430.759C420.499 430.327 420.886 429.562 420.886 428.464C420.886 427.78 420.724 427.24 420.4 426.844C420.094 426.43 419.581 426.088 418.861 425.818C418.141 425.53 417.178 425.242 415.972 424.954C414.064 424.486 412.723 423.883 411.949 423.145C411.175 422.389 410.788 421.381 410.788 420.121C410.788 418.645 411.319 417.484 412.381 416.638C413.443 415.774 415.063 415.342 417.241 415.342C418.249 415.342 419.185 415.414 420.049 415.558C420.913 415.702 421.579 415.855 422.047 416.017V417.961C421.399 417.727 420.697 417.547 419.941 417.421C419.185 417.295 418.402 417.232 417.592 417.232C416.116 417.232 414.982 417.448 414.19 417.88C413.398 418.312 413.001 419.059 413.001 420.121C413.001 420.715 413.136 421.201 413.406 421.579C413.695 421.939 414.172 422.254 414.838 422.524C415.504 422.776 416.431 423.046 417.619 423.334C419.041 423.676 420.148 424.09 420.94 424.576C421.732 425.044 422.29 425.602 422.614 426.25C422.938 426.898 423.1 427.636 423.1 428.464C423.1 429.994 422.542 431.182 421.426 432.028C420.31 432.856 418.645 433.27 416.431 433.27ZM429.947 433V417.367H424.169V415.612H437.939V417.367H432.161V433H429.947ZM437.55 436.24L438.306 431.461H440.304L439.17 436.24H437.55ZM454.874 433.27C452.714 433.27 450.968 433 449.636 432.46V430.489C450.392 430.777 451.193 431.002 452.039 431.164C452.903 431.308 453.785 431.38 454.685 431.38C456.233 431.38 457.394 431.173 458.168 430.759C458.942 430.327 459.329 429.562 459.329 428.464C459.329 427.78 459.167 427.24 458.843 426.844C458.537 426.43 458.024 426.088 457.304 425.818C456.584 425.53 455.621 425.242 454.415 424.954C452.507 424.486 451.166 423.883 450.392 423.145C449.618 422.389 449.231 421.381 449.231 420.121C449.231 418.645 449.762 417.484 450.824 416.638C451.886 415.774 453.506 415.342 455.684 415.342C456.692 415.342 457.628 415.414 458.492 415.558C459.356 415.702 460.022 415.855 460.49 416.017V417.961C459.842 417.727 459.14 417.547 458.384 417.421C457.628 417.295 456.845 417.232 456.035 417.232C454.559 417.232 453.425 417.448 452.633 417.88C451.841 418.312 451.445 419.059 451.445 420.121C451.445 420.715 451.58 421.201 451.85 421.579C452.138 421.939 452.615 422.254 453.281 422.524C453.947 422.776 454.874 423.046 456.062 423.334C457.484 423.676 458.591 424.09 459.383 424.576C460.175 425.044 460.733 425.602 461.057 426.25C461.381 426.898 461.543 427.636 461.543 428.464C461.543 429.994 460.985 431.182 459.869 432.028C458.753 432.856 457.088 433.27 454.874 433.27ZM464.774 433V415.612H476.519V417.367H466.988V423.442H475.547V425.17H466.988V431.272H476.519V433H464.774ZM479.75 433V415.612H487.391C489.263 415.612 490.622 416.098 491.468 417.07C492.332 418.042 492.764 419.356 492.764 421.012C492.764 422.29 492.449 423.352 491.819 424.198C491.207 425.044 490.289 425.611 489.065 425.899C489.425 426.115 489.695 426.367 489.875 426.655C490.073 426.925 490.271 427.294 490.469 427.762L492.737 433H490.469L488.255 427.951C488.021 427.411 487.733 427.024 487.391 426.79C487.067 426.556 486.482 426.439 485.636 426.439H481.964V433H479.75ZM481.964 424.711H486.77C487.94 424.711 488.858 424.423 489.524 423.847C490.208 423.253 490.55 422.308 490.55 421.012C490.55 418.582 489.389 417.367 487.067 417.367H481.964V424.711ZM500.301 433L493.686 415.612H495.981L501.57 430.759L507.186 415.612H509.481L502.893 433H500.301ZM512.314 433V415.612H514.528V433H512.314ZM526.102 433.27C524.23 433.27 522.673 432.919 521.431 432.217C520.207 431.497 519.289 430.498 518.677 429.22C518.065 427.924 517.759 426.412 517.759 424.684C517.759 422.794 518.047 421.147 518.623 419.743C519.199 418.339 520.099 417.259 521.323 416.503C522.547 415.729 524.131 415.342 526.075 415.342C527.083 415.342 527.992 415.414 528.802 415.558C529.63 415.702 530.404 415.9 531.124 416.152V418.096C530.404 417.826 529.639 417.619 528.829 417.475C528.019 417.313 527.164 417.232 526.264 417.232C524.698 417.232 523.456 417.529 522.538 418.123C521.62 418.717 520.963 419.572 520.567 420.688C520.171 421.804 519.973 423.136 519.973 424.684C519.973 426.826 520.477 428.482 521.485 429.652C522.511 430.804 524.122 431.38 526.318 431.38C527.128 431.38 527.947 431.317 528.775 431.191C529.621 431.065 530.404 430.867 531.124 430.597V432.568C530.422 432.784 529.657 432.955 528.829 433.081C528.019 433.207 527.11 433.27 526.102 433.27ZM534.357 433V415.612H546.102V417.367H536.571V423.442H545.13V425.17H536.571V431.272H546.102V433H534.357ZM561.226 433V426.52L555.016 415.612H557.311L562.333 424.63L567.355 415.612H569.65L563.44 426.52V433H561.226ZM578.064 433.27C575.346 433.27 573.33 432.559 572.016 431.137C570.702 429.697 570.045 427.42 570.045 424.306C570.045 421.192 570.702 418.924 572.016 417.502C573.33 416.062 575.346 415.342 578.064 415.342C580.8 415.342 582.816 416.062 584.112 417.502C585.426 418.924 586.083 421.192 586.083 424.306C586.083 427.42 585.426 429.697 584.112 431.137C582.816 432.559 580.8 433.27 578.064 433.27ZM578.064 431.38C579.378 431.38 580.458 431.155 581.304 430.705C582.168 430.255 582.807 429.517 583.221 428.491C583.653 427.447 583.869 426.052 583.869 424.306C583.869 422.56 583.653 421.174 583.221 420.148C582.807 419.104 582.168 418.357 581.304 417.907C580.458 417.457 579.378 417.232 578.064 417.232C576.75 417.232 575.661 417.457 574.797 417.907C573.951 418.357 573.312 419.104 572.88 420.148C572.466 421.174 572.259 422.56 572.259 424.306C572.259 426.052 572.466 427.447 572.88 428.491C573.312 429.517 573.951 430.255 574.797 430.705C575.661 431.155 576.75 431.38 578.064 431.38ZM596.514 433.27C594.138 433.27 592.32 432.703 591.06 431.569C589.818 430.435 589.197 428.788 589.197 426.628V415.612H591.411V426.655C591.411 428.239 591.852 429.427 592.734 430.219C593.634 430.993 594.894 431.38 596.514 431.38C598.116 431.38 599.358 430.993 600.24 430.219C601.14 429.427 601.59 428.239 601.59 426.655V415.612H603.804V426.628C603.804 428.788 603.174 430.435 601.914 431.569C600.672 432.703 598.872 433.27 596.514 433.27ZM621.472 433.27C619.6 433.27 618.043 432.919 616.801 432.217C615.577 431.497 614.659 430.498 614.047 429.22C613.435 427.924 613.129 426.412 613.129 424.684C613.129 422.794 613.417 421.147 613.993 419.743C614.569 418.339 615.469 417.259 616.693 416.503C617.917 415.729 619.501 415.342 621.445 415.342C622.453 415.342 623.362 415.414 624.172 415.558C625 415.702 625.774 415.9 626.494 416.152V418.096C625.774 417.826 625.009 417.619 624.199 417.475C623.389 417.313 622.534 417.232 621.634 417.232C620.068 417.232 618.826 417.529 617.908 418.123C616.99 418.717 616.333 419.572 615.937 420.688C615.541 421.804 615.343 423.136 615.343 424.684C615.343 426.826 615.847 428.482 616.855 429.652C617.881 430.804 619.492 431.38 621.688 431.38C622.498 431.38 623.317 431.317 624.145 431.191C624.991 431.065 625.774 430.867 626.494 430.597V432.568C625.792 432.784 625.027 432.955 624.199 433.081C623.389 433.207 622.48 433.27 621.472 433.27ZM628.106 433L634.721 415.612H637.313L643.901 433H641.633L639.797 428.221H632.237L630.401 433H628.106ZM632.615 426.466H639.392L635.99 417.529L632.615 426.466ZM647.129 433V415.612H649.127L659.036 429.598V415.612H661.25V433H659.225L649.343 419.041V433H647.129ZM676.358 433.27C674.198 433.27 672.452 433 671.12 432.46V430.489C671.876 430.777 672.677 431.002 673.523 431.164C674.387 431.308 675.269 431.38 676.169 431.38C677.717 431.38 678.878 431.173 679.652 430.759C680.426 430.327 680.813 429.562 680.813 428.464C680.813 427.78 680.651 427.24 680.327 426.844C680.021 426.43 679.508 426.088 678.788 425.818C678.068 425.53 677.105 425.242 675.899 424.954C673.991 424.486 672.65 423.883 671.876 423.145C671.102 422.389 670.715 421.381 670.715 420.121C670.715 418.645 671.246 417.484 672.308 416.638C673.37 415.774 674.99 415.342 677.168 415.342C678.176 415.342 679.112 415.414 679.976 415.558C680.84 415.702 681.506 415.855 681.974 416.017V417.961C681.326 417.727 680.624 417.547 679.868 417.421C679.112 417.295 678.329 417.232 677.519 417.232C676.043 417.232 674.909 417.448 674.117 417.88C673.325 418.312 672.929 419.059 672.929 420.121C672.929 420.715 673.064 421.201 673.334 421.579C673.622 421.939 674.099 422.254 674.765 422.524C675.431 422.776 676.358 423.046 677.546 423.334C678.968 423.676 680.075 424.09 680.867 424.576C681.659 425.044 682.217 425.602 682.541 426.25C682.865 426.898 683.027 427.636 683.027 428.464C683.027 429.994 682.469 431.182 681.353 432.028C680.237 432.856 678.572 433.27 676.358 433.27ZM686.258 433V415.612H698.003V417.367H688.472V423.442H697.031V425.17H688.472V431.272H698.003V433H686.258ZM701.235 433V415.612H712.98V417.367H703.449V423.442H712.008V425.17H703.449V431.272H712.98V433H701.235Z" fill="#1D1915"/>
</svg>
