<svg width="599" height="60" viewBox="0 0 599 60" fill="none" xmlns="http://www.w3.org/2000/svg">
<path d="M75.36 44.4C72.5867 44.4 70.28 43.88 68.44 42.84C66.6267 41.7733 65.2667 40.2933 64.36 38.4C63.4533 36.48 63 34.24 63 31.68C63 28.88 63.4267 26.44 64.28 24.36C65.1333 22.28 66.4667 20.68 68.28 19.56C70.0933 18.4133 72.44 17.84 75.32 17.84C76.8133 17.84 78.16 17.9467 79.36 18.16C80.5867 18.3733 81.7333 18.6667 82.8 19.04V21.92C81.7333 21.52 80.6 21.2133 79.4 21C78.2 20.76 76.9333 20.64 75.6 20.64C73.28 20.64 71.44 21.08 70.08 21.96C68.72 22.84 67.7467 24.1067 67.16 25.76C66.5733 27.4133 66.28 29.3867 66.28 31.68C66.28 34.8533 67.0267 37.3067 68.52 39.04C70.04 40.7467 72.4267 41.6 75.68 41.6C76.88 41.6 78.0933 41.5067 79.32 41.32C80.5733 41.1333 81.7333 40.84 82.8 40.44V43.36C81.76 43.68 80.6267 43.9333 79.4 44.12C78.2 44.3067 76.8533 44.4 75.36 44.4ZM98.2291 44.4C94.7091 44.4 92.0157 43.56 90.1491 41.88C88.3091 40.2 87.3891 37.76 87.3891 34.56V18.24H90.6691V34.6C90.6691 36.9467 91.3224 38.7067 92.6291 39.88C93.9624 41.0267 95.8291 41.6 98.2291 41.6C100.602 41.6 102.442 41.0267 103.749 39.88C105.082 38.7067 105.749 36.9467 105.749 34.6V18.24H109.029V34.56C109.029 37.76 108.096 40.2 106.229 41.88C104.389 43.56 101.722 44.4 98.2291 44.4ZM121.985 44.4C118.785 44.4 116.198 44 114.225 43.2V40.28C115.345 40.7067 116.532 41.04 117.785 41.28C119.065 41.4933 120.372 41.6 121.705 41.6C123.998 41.6 125.718 41.2933 126.865 40.68C128.012 40.04 128.585 38.9067 128.585 37.28C128.585 36.2667 128.345 35.4667 127.865 34.88C127.412 34.2667 126.652 33.76 125.585 33.36C124.518 32.9333 123.092 32.5067 121.305 32.08C118.478 31.3867 116.492 30.4933 115.345 29.4C114.198 28.28 113.625 26.7867 113.625 24.92C113.625 22.7333 114.412 21.0133 115.985 19.76C117.558 18.48 119.958 17.84 123.185 17.84C124.678 17.84 126.065 17.9467 127.345 18.16C128.625 18.3733 129.612 18.6 130.305 18.84V21.72C129.345 21.3733 128.305 21.1067 127.185 20.92C126.065 20.7333 124.905 20.64 123.705 20.64C121.518 20.64 119.838 20.96 118.665 21.6C117.492 22.24 116.905 23.3467 116.905 24.92C116.905 25.8 117.105 26.52 117.505 27.08C117.932 27.6133 118.638 28.08 119.625 28.48C120.612 28.8533 121.985 29.2533 123.745 29.68C125.852 30.1867 127.492 30.8 128.665 31.52C129.838 32.2133 130.665 33.04 131.145 34C131.625 34.96 131.865 36.0533 131.865 37.28C131.865 39.5467 131.038 41.3067 129.385 42.56C127.732 43.7867 125.265 44.4 121.985 44.4ZM142.01 44V20.84H133.45V18.24H153.85V20.84H145.29V44H142.01ZM167.341 44.4C163.314 44.4 160.328 43.3467 158.381 41.24C156.434 39.1067 155.461 35.7333 155.461 31.12C155.461 26.5067 156.434 23.1467 158.381 21.04C160.328 18.9067 163.314 17.84 167.341 17.84C171.394 17.84 174.381 18.9067 176.301 21.04C178.248 23.1467 179.221 26.5067 179.221 31.12C179.221 35.7333 178.248 39.1067 176.301 41.24C174.381 43.3467 171.394 44.4 167.341 44.4ZM167.341 41.6C169.288 41.6 170.888 41.2667 172.141 40.6C173.421 39.9333 174.368 38.84 174.981 37.32C175.621 35.7733 175.941 33.7067 175.941 31.12C175.941 28.5333 175.621 26.48 174.981 24.96C174.368 23.4133 173.421 22.3067 172.141 21.64C170.888 20.9733 169.288 20.64 167.341 20.64C165.394 20.64 163.781 20.9733 162.501 21.64C161.248 22.3067 160.301 23.4133 159.661 24.96C159.048 26.48 158.741 28.5333 158.741 31.12C158.741 33.7067 159.048 35.7733 159.661 37.32C160.301 38.84 161.248 39.9333 162.501 40.6C163.781 41.2667 165.394 41.6 167.341 41.6ZM184.034 44V18.24H187.554L196.274 36.12L204.994 18.24H208.514V44H205.274V23.36L197.394 39.52H195.194L187.274 23.36V44H184.034ZM234.891 44.4C232.118 44.4 229.811 43.88 227.971 42.84C226.158 41.7733 224.798 40.2933 223.891 38.4C222.985 36.48 222.531 34.24 222.531 31.68C222.531 28.88 222.958 26.44 223.811 24.36C224.665 22.28 225.998 20.68 227.811 19.56C229.625 18.4133 231.971 17.84 234.851 17.84C236.345 17.84 237.691 17.9467 238.891 18.16C240.118 18.3733 241.265 18.6667 242.331 19.04V21.92C241.265 21.52 240.131 21.2133 238.931 21C237.731 20.76 236.465 20.64 235.131 20.64C232.811 20.64 230.971 21.08 229.611 21.96C228.251 22.84 227.278 24.1067 226.691 25.76C226.105 27.4133 225.811 29.3867 225.811 31.68C225.811 34.8533 226.558 37.3067 228.051 39.04C229.571 40.7467 231.958 41.6 235.211 41.6C236.411 41.6 237.625 41.5067 238.851 41.32C240.105 41.1333 241.265 40.84 242.331 40.44V43.36C241.291 43.68 240.158 43.9333 238.931 44.12C237.731 44.3067 236.385 44.4 234.891 44.4ZM244.719 44L254.519 18.24H258.359L268.119 44H264.759L262.039 36.92H250.839L248.119 44H244.719ZM251.399 34.32H261.439L256.399 21.08L251.399 34.32ZM272.902 44V18.24H284.822C287.355 18.24 289.208 18.84 290.382 20.04C291.582 21.2133 292.182 22.88 292.182 25.04C292.182 26.4533 291.888 27.64 291.302 28.6C290.742 29.5333 289.955 30.24 288.942 30.72C290.248 31.04 291.275 31.6667 292.022 32.6C292.795 33.5067 293.182 34.8533 293.182 36.64C293.182 39.1467 292.528 41 291.222 42.2C289.915 43.4 287.995 44 285.462 44H272.902ZM276.182 29.52H284.622C286.248 29.52 287.395 29.1333 288.062 28.36C288.755 27.56 289.102 26.5333 289.102 25.28C289.102 23.7867 288.755 22.6667 288.062 21.92C287.368 21.1467 286.022 20.76 284.022 20.76H276.182V29.52ZM276.182 41.52H284.902C286.635 41.52 287.902 41.1467 288.702 40.4C289.502 39.6267 289.902 38.3333 289.902 36.52C289.902 35.0267 289.502 33.9067 288.702 33.16C287.928 32.3867 286.488 32 284.382 32H276.182V41.52ZM297.98 44V18.24H301.26V44H297.98ZM306.847 44V18.24H309.807L324.487 38.96V18.24H327.767V44H324.767L310.127 23.32V44H306.847ZM333.37 44V18.24H350.77V20.84H336.65V29.84H349.33V32.4H336.65V41.44H350.77V44H333.37ZM362.518 44V20.84H353.958V18.24H374.358V20.84H365.798V44H362.518ZM384.329 44.4C381.129 44.4 378.542 44 376.569 43.2V40.28C377.689 40.7067 378.875 41.04 380.129 41.28C381.409 41.4933 382.715 41.6 384.049 41.6C386.342 41.6 388.062 41.2933 389.209 40.68C390.355 40.04 390.929 38.9067 390.929 37.28C390.929 36.2667 390.689 35.4667 390.209 34.88C389.755 34.2667 388.995 33.76 387.929 33.36C386.862 32.9333 385.435 32.5067 383.649 32.08C380.822 31.3867 378.835 30.4933 377.689 29.4C376.542 28.28 375.969 26.7867 375.969 24.92C375.969 22.7333 376.755 21.0133 378.329 19.76C379.902 18.48 382.302 17.84 385.529 17.84C387.022 17.84 388.409 17.9467 389.689 18.16C390.969 18.3733 391.955 18.6 392.649 18.84V21.72C391.689 21.3733 390.649 21.1067 389.529 20.92C388.409 20.7333 387.249 20.64 386.049 20.64C383.862 20.64 382.182 20.96 381.009 21.6C379.835 22.24 379.249 23.3467 379.249 24.92C379.249 25.8 379.449 26.52 379.849 27.08C380.275 27.6133 380.982 28.08 381.969 28.48C382.955 28.8533 384.329 29.2533 386.089 29.68C388.195 30.1867 389.835 30.8 391.009 31.52C392.182 32.2133 393.009 33.04 393.489 34C393.969 34.96 394.209 36.0533 394.209 37.28C394.209 39.5467 393.382 41.3067 391.729 42.56C390.075 43.7867 387.609 44.4 384.329 44.4ZM416.214 44.4C413.547 44.4 411.414 43.8133 409.814 42.64C408.214 41.4667 407.414 39.8933 407.414 37.92C407.414 36.1067 407.974 34.5467 409.094 33.24C410.214 31.9333 411.747 30.7733 413.694 29.76C412.654 28.72 411.774 27.7467 411.054 26.84C410.334 25.9333 409.974 24.84 409.974 23.56C409.974 21.96 410.521 20.6133 411.614 19.52C412.734 18.4 414.307 17.84 416.334 17.84C418.307 17.84 419.841 18.36 420.934 19.4C422.027 20.44 422.574 21.8267 422.574 23.56C422.574 25 422.187 26.2133 421.414 27.2C420.641 28.1867 419.534 29.1867 418.094 30.2L424.734 36.96C425.187 35.9733 425.414 34.72 425.414 33.2V32.64H428.014V33.2C428.014 34.24 427.894 35.2533 427.654 36.24C427.414 37.2267 427.067 38.08 426.614 38.8L430.214 42.44L428.214 44.24L425.014 41.08C424.081 42.2267 422.867 43.0667 421.374 43.6C419.881 44.1333 418.161 44.4 416.214 44.4ZM416.054 28.6C417.307 27.8267 418.254 27.0933 418.894 26.4C419.534 25.68 419.854 24.7733 419.854 23.68C419.854 22.6667 419.574 21.8667 419.014 21.28C418.481 20.6667 417.587 20.36 416.334 20.36C415.054 20.36 414.121 20.68 413.534 21.32C412.974 21.96 412.694 22.7467 412.694 23.68C412.694 24.5333 412.987 25.32 413.574 26.04C414.187 26.76 415.014 27.6133 416.054 28.6ZM416.214 42.04C417.761 42.04 419.081 41.8133 420.174 41.36C421.294 40.88 422.241 40.1733 423.014 39.24L415.694 31.76C413.961 32.56 412.667 33.4267 411.814 34.36C410.987 35.2667 410.574 36.4267 410.574 37.84C410.574 39.2267 411.107 40.28 412.174 41C413.241 41.6933 414.587 42.04 416.214 42.04ZM455.399 44.4C452.626 44.4 450.319 43.88 448.479 42.84C446.666 41.7733 445.306 40.2933 444.399 38.4C443.492 36.48 443.039 34.24 443.039 31.68C443.039 28.88 443.466 26.44 444.319 24.36C445.172 22.28 446.506 20.68 448.319 19.56C450.132 18.4133 452.479 17.84 455.359 17.84C456.852 17.84 458.199 17.9467 459.399 18.16C460.626 18.3733 461.772 18.6667 462.839 19.04V21.92C461.772 21.52 460.639 21.2133 459.439 21C458.239 20.76 456.972 20.64 455.639 20.64C453.319 20.64 451.479 21.08 450.119 21.96C448.759 22.84 447.786 24.1067 447.199 25.76C446.612 27.4133 446.319 29.3867 446.319 31.68C446.319 34.8533 447.066 37.3067 448.559 39.04C450.079 40.7467 452.466 41.6 455.719 41.6C456.919 41.6 458.132 41.5067 459.359 41.32C460.612 41.1333 461.772 40.84 462.839 40.44V43.36C461.799 43.68 460.666 43.9333 459.439 44.12C458.239 44.3067 456.892 44.4 455.399 44.4ZM467.628 44V18.24H470.908V41.44H484.628V44H467.628ZM497.732 44.4C493.705 44.4 490.718 43.3467 488.772 41.24C486.825 39.1067 485.852 35.7333 485.852 31.12C485.852 26.5067 486.825 23.1467 488.772 21.04C490.718 18.9067 493.705 17.84 497.732 17.84C501.785 17.84 504.772 18.9067 506.692 21.04C508.638 23.1467 509.612 26.5067 509.612 31.12C509.612 35.7333 508.638 39.1067 506.692 41.24C504.772 43.3467 501.785 44.4 497.732 44.4ZM497.732 41.6C499.678 41.6 501.278 41.2667 502.532 40.6C503.812 39.9333 504.758 38.84 505.372 37.32C506.012 35.7733 506.332 33.7067 506.332 31.12C506.332 28.5333 506.012 26.48 505.372 24.96C504.758 23.4133 503.812 22.3067 502.532 21.64C501.278 20.9733 499.678 20.64 497.732 20.64C495.785 20.64 494.172 20.9733 492.892 21.64C491.638 22.3067 490.692 23.4133 490.052 24.96C489.438 26.48 489.132 28.5333 489.132 31.12C489.132 33.7067 489.438 35.7733 490.052 37.32C490.692 38.84 491.638 39.9333 492.892 40.6C494.172 41.2667 495.785 41.6 497.732 41.6ZM521.204 44.4C518.004 44.4 515.417 44 513.444 43.2V40.28C514.564 40.7067 515.75 41.04 517.004 41.28C518.284 41.4933 519.59 41.6 520.924 41.6C523.217 41.6 524.937 41.2933 526.084 40.68C527.23 40.04 527.804 38.9067 527.804 37.28C527.804 36.2667 527.564 35.4667 527.084 34.88C526.63 34.2667 525.87 33.76 524.804 33.36C523.737 32.9333 522.31 32.5067 520.524 32.08C517.697 31.3867 515.71 30.4933 514.564 29.4C513.417 28.28 512.844 26.7867 512.844 24.92C512.844 22.7333 513.63 21.0133 515.204 19.76C516.777 18.48 519.177 17.84 522.404 17.84C523.897 17.84 525.284 17.9467 526.564 18.16C527.844 18.3733 528.83 18.6 529.524 18.84V21.72C528.564 21.3733 527.524 21.1067 526.404 20.92C525.284 20.7333 524.124 20.64 522.924 20.64C520.737 20.64 519.057 20.96 517.884 21.6C516.71 22.24 516.124 23.3467 516.124 24.92C516.124 25.8 516.324 26.52 516.724 27.08C517.15 27.6133 517.857 28.08 518.844 28.48C519.83 28.8533 521.204 29.2533 522.964 29.68C525.07 30.1867 526.71 30.8 527.884 31.52C529.057 32.2133 529.884 33.04 530.364 34C530.844 34.96 531.084 36.0533 531.084 37.28C531.084 39.5467 530.257 41.3067 528.604 42.56C526.95 43.7867 524.484 44.4 521.204 44.4ZM535.87 44V18.24H553.27V20.84H539.15V29.84H551.83V32.4H539.15V41.44H553.27V44H535.87ZM565.018 44V20.84H556.458V18.24H576.858V20.84H568.298V44H565.018ZM586.829 44.4C583.629 44.4 581.042 44 579.069 43.2V40.28C580.189 40.7067 581.375 41.04 582.629 41.28C583.909 41.4933 585.215 41.6 586.549 41.6C588.842 41.6 590.562 41.2933 591.709 40.68C592.855 40.04 593.429 38.9067 593.429 37.28C593.429 36.2667 593.189 35.4667 592.709 34.88C592.255 34.2667 591.495 33.76 590.429 33.36C589.362 32.9333 587.935 32.5067 586.149 32.08C583.322 31.3867 581.335 30.4933 580.189 29.4C579.042 28.28 578.469 26.7867 578.469 24.92C578.469 22.7333 579.255 21.0133 580.829 19.76C582.402 18.48 584.802 17.84 588.029 17.84C589.522 17.84 590.909 17.9467 592.189 18.16C593.469 18.3733 594.455 18.6 595.149 18.84V21.72C594.189 21.3733 593.149 21.1067 592.029 20.92C590.909 20.7333 589.749 20.64 588.549 20.64C586.362 20.64 584.682 20.96 583.509 21.6C582.335 22.24 581.749 23.3467 581.749 24.92C581.749 25.8 581.949 26.52 582.349 27.08C582.775 27.6133 583.482 28.08 584.469 28.48C585.455 28.8533 586.829 29.2533 588.589 29.68C590.695 30.1867 592.335 30.8 593.509 31.52C594.682 32.2133 595.509 33.04 595.989 34C596.469 34.96 596.709 36.0533 596.709 37.28C596.709 39.5467 595.882 41.3067 594.229 42.56C592.575 43.7867 590.109 44.4 586.829 44.4Z" fill="#F0ECE4"/>
<path d="M2 6V31.0207V54.4434H47V31.0207V7.598H6.43946" stroke="#F0ECE4" stroke-width="3"/>
<path d="M7.96094 7.09766V18.1991H42.3139" stroke="#F0ECE4" stroke-width="3"/>
<path d="M7.96094 27.2891V39.3755H42.3139" stroke="#F0ECE4" stroke-width="3"/>
<path d="M42.3047 16.7056V28.7874L7.95169 28.7874" stroke="#F0ECE4" stroke-width="3"/>
<path d="M42 37.8711V50H6.5" stroke="#F0ECE4" stroke-width="3"/>
<circle cx="24.5" cy="12.5" r="1.5" fill="#F0ECE4"/>
<circle cx="24.5" cy="23.0884" r="1.5" fill="#F0ECE4"/>
<circle cx="24.5" cy="33.6765" r="1.5" fill="#F0ECE4"/>
<circle cx="24.5" cy="44.2646" r="1.5" fill="#F0ECE4"/>
</svg>
