<svg width="846" height="504" viewBox="0 0 846 504" fill="none" xmlns="http://www.w3.org/2000/svg">
<path d="M107.584 0L691.552 80.2428L846 482.53L0 504L107.584 0Z" fill="#F0ECE4"/>
<path d="M107.584 0L691.552 80.2428L846 482.53L0 504L107.584 0Z" fill="#F0ECE4"/>
<path d="M313 118V235.968V351H534V235.968V120.937H334.803" stroke="#4B4238" stroke-width="6"/>
<path d="M335 118V173H511" stroke="#4B4238" stroke-width="6"/>
<path d="M335 222V277H511" stroke="#4B4238" stroke-width="6"/>
<path d="M511 170V225H335" stroke="#4B4238" stroke-width="6"/>
<path d="M511 274V329H335" stroke="#4B4238" stroke-width="6"/>
<circle cx="423" cy="146" r="5.5" fill="#4B4238" stroke="#4B4238"/>
<circle cx="423" cy="198" r="5.5" fill="#4B4238" stroke="#4B4238"/>
<circle cx="423" cy="250" r="5.5" fill="#4B4238" stroke="#4B4238"/>
<circle cx="423" cy="302" r="5.5" fill="#4B4238" stroke="#4B4238"/>
<path d="M158.024 403V372.088H163.256V398.968H179.096V403H158.024ZM196.443 403.48C192.187 403.48 188.875 402.456 186.507 400.408C184.171 398.36 183.003 395.4 183.003 391.528V372.088H188.235V391.336C188.235 393.928 188.939 395.864 190.347 397.144C191.787 398.424 193.819 399.064 196.443 399.064C199.035 399.064 201.035 398.424 202.443 397.144C203.883 395.864 204.603 393.928 204.603 391.336V372.088H209.787V391.528C209.787 395.4 208.619 398.36 206.283 400.408C203.947 402.456 200.667 403.48 196.443 403.48ZM212.939 403L223.979 387.592L213.179 372.088H219.227L227.099 383.56L234.971 372.088H241.067L230.219 387.592L241.259 403H235.115L227.099 391.672L219.083 403H212.939ZM245.446 403V372.088H266.998V376.168H250.678V385.528H265.222V389.56H250.678V398.968H266.998V403H245.446ZM282.899 403V372.088H288.131V386.296L301.283 372.088H307.331L295.955 384.568L307.811 403H302.243L292.691 387.88L288.131 392.776V403H282.899ZM312.899 403V372.088H318.131V403H312.899ZM332.212 403V376.168H322.324V372.088H347.284V376.168H337.444V403H332.212ZM365.504 403.48C360.416 403.48 356.56 402.088 353.936 399.304C351.344 396.52 350.048 392.76 350.048 388.024C350.048 384.632 350.592 381.72 351.68 379.288C352.8 376.824 354.496 374.936 356.768 373.624C359.04 372.28 361.936 371.608 365.456 371.608C367.248 371.608 368.88 371.752 370.352 372.04C371.856 372.296 373.248 372.648 374.528 373.096V377.656C373.248 377.144 371.872 376.76 370.4 376.504C368.96 376.216 367.44 376.072 365.84 376.072C362 376.072 359.28 377.096 357.68 379.144C356.112 381.192 355.328 384.152 355.328 388.024C355.328 391.64 356.192 394.392 357.92 396.28C359.648 398.136 362.32 399.064 365.936 399.064C367.408 399.064 368.88 398.952 370.352 398.728C371.856 398.472 373.264 398.088 374.576 397.576V402.184C373.296 402.6 371.904 402.92 370.4 403.144C368.928 403.368 367.296 403.48 365.504 403.48ZM379.649 403V372.088H384.881V385.528H399.761V372.088H404.993V403H399.761V389.56H384.881V403H379.649ZM411.055 403V372.088H432.607V376.168H416.287V385.528H430.831V389.56H416.287V398.968H432.607V403H411.055ZM437.446 403V372.088H442.054L458.182 394.84V372.088H463.366V403H458.758L442.678 380.296V403H437.446ZM495.02 403.48C489.932 403.48 486.076 402.088 483.452 399.304C480.86 396.52 479.564 392.76 479.564 388.024C479.564 384.632 480.108 381.72 481.196 379.288C482.316 376.824 484.012 374.936 486.284 373.624C488.556 372.28 491.452 371.608 494.972 371.608C496.764 371.608 498.396 371.752 499.868 372.04C501.372 372.296 502.764 372.648 504.044 373.096V377.656C502.764 377.144 501.388 376.76 499.916 376.504C498.476 376.216 496.956 376.072 495.356 376.072C491.516 376.072 488.796 377.096 487.196 379.144C485.628 381.192 484.844 384.152 484.844 388.024C484.844 391.64 485.708 394.392 487.436 396.28C489.164 398.136 491.836 399.064 495.452 399.064C496.924 399.064 498.396 398.952 499.868 398.728C501.372 398.472 502.78 398.088 504.092 397.576V402.184C502.812 402.6 501.42 402.92 499.916 403.144C498.444 403.368 496.812 403.48 495.02 403.48ZM506.331 403L518.139 372.088H523.995L535.707 403H530.331L527.259 395.032H514.827L511.755 403H506.331ZM515.643 391H526.395L521.019 376.84L515.643 391ZM540.852 403V372.088H555.828C558.9 372.088 561.172 372.808 562.644 374.248C564.116 375.688 564.852 377.72 564.852 380.344C564.852 382.008 564.516 383.416 563.844 384.568C563.172 385.688 562.276 386.536 561.156 387.112C562.66 387.528 563.844 388.28 564.708 389.368C565.604 390.424 566.052 391.992 566.052 394.072C566.052 397.08 565.236 399.32 563.604 400.792C562.004 402.264 559.636 403 556.5 403H540.852ZM546.084 385.288H555.108C556.868 385.288 558.116 384.888 558.852 384.088C559.62 383.256 560.004 382.152 560.004 380.776C560.004 379.176 559.62 377.992 558.852 377.224C558.084 376.424 556.644 376.024 554.532 376.024H546.084V385.288ZM546.084 399.16H555.396C557.252 399.16 558.612 398.776 559.476 398.008C560.34 397.208 560.772 395.832 560.772 393.88C560.772 392.28 560.34 391.096 559.476 390.328C558.644 389.528 557.108 389.128 554.868 389.128H546.084V399.16ZM571.133 403V372.088H576.365V403H571.133ZM582.43 403V372.088H587.038L603.166 394.84V372.088H608.35V403H603.742L587.662 380.296V403H582.43ZM614.446 403V372.088H635.998V376.168H619.678V385.528H634.222V389.56H619.678V398.968H635.998V403H614.446ZM648.853 403V376.168H638.965V372.088H663.925V376.168H654.085V403H648.853ZM676.025 403.48C672.025 403.48 668.809 402.968 666.377 401.944V397.336C667.753 397.848 669.225 398.264 670.793 398.584C672.393 398.904 673.977 399.064 675.545 399.064C678.009 399.064 679.849 398.776 681.065 398.2C682.313 397.624 682.937 396.472 682.937 394.744C682.937 393.688 682.681 392.84 682.169 392.2C681.657 391.56 680.809 391.016 679.625 390.568C678.441 390.088 676.809 389.592 674.729 389.08C671.401 388.216 669.065 387.128 667.721 385.816C666.377 384.472 665.705 382.632 665.705 380.296C665.705 377.576 666.697 375.448 668.681 373.912C670.665 372.376 673.625 371.608 677.561 371.608C679.353 371.608 681.033 371.736 682.601 371.992C684.201 372.248 685.449 372.536 686.345 372.856V377.464C683.913 376.536 681.225 376.072 678.281 376.072C675.977 376.072 674.185 376.376 672.905 376.984C671.625 377.592 670.985 378.696 670.985 380.296C670.985 381.224 671.209 381.976 671.657 382.552C672.105 383.128 672.873 383.624 673.961 384.04C675.081 384.456 676.617 384.92 678.569 385.432C681.097 386.072 683.049 386.84 684.425 387.736C685.833 388.6 686.809 389.624 687.353 390.808C687.929 391.96 688.217 393.272 688.217 394.744C688.217 397.464 687.209 399.608 685.193 401.176C683.177 402.712 680.121 403.48 676.025 403.48Z" fill="#4B4238"/>
<path d="M174.584 433.128C173.448 433.128 172.616 432.776 172.088 432.072C171.576 431.384 171.304 430.424 171.272 429.192C169.224 429.016 167.696 428.296 166.688 427.032C165.696 425.752 165.2 423.832 165.2 421.272C165.2 418.504 165.784 416.488 166.952 415.224C168.12 413.944 169.912 413.304 172.328 413.304C174.76 413.304 176.552 413.944 177.704 415.224C178.872 416.488 179.456 418.504 179.456 421.272C179.456 423.88 178.944 425.824 177.92 427.104C176.896 428.368 175.32 429.072 173.192 429.216C173.208 430.048 173.336 430.624 173.576 430.944C173.832 431.28 174.296 431.448 174.968 431.448C175.544 431.448 176.112 431.368 176.672 431.208V432.864C176.416 432.928 176.096 432.984 175.712 433.032C175.328 433.096 174.952 433.128 174.584 433.128ZM172.328 427.56C173.496 427.56 174.456 427.36 175.208 426.96C175.976 426.56 176.544 425.904 176.912 424.992C177.296 424.064 177.488 422.824 177.488 421.272C177.488 419.72 177.296 418.488 176.912 417.576C176.544 416.648 175.976 415.984 175.208 415.584C174.456 415.184 173.496 414.984 172.328 414.984C171.16 414.984 170.192 415.184 169.424 415.584C168.672 415.984 168.104 416.648 167.72 417.576C167.352 418.488 167.168 419.72 167.168 421.272C167.168 422.824 167.352 424.064 167.72 424.992C168.104 425.904 168.672 426.56 169.424 426.96C170.192 427.36 171.16 427.56 172.328 427.56ZM188.728 429.24C186.616 429.24 185 428.736 183.88 427.728C182.776 426.72 182.224 425.256 182.224 423.336V413.544H184.192V423.36C184.192 424.768 184.584 425.824 185.368 426.528C186.168 427.216 187.288 427.56 188.728 427.56C190.152 427.56 191.256 427.216 192.04 426.528C192.84 425.824 193.24 424.768 193.24 423.36V413.544H195.208V423.336C195.208 425.256 194.648 426.72 193.528 427.728C192.424 428.736 190.824 429.24 188.728 429.24ZM196.888 429L202.768 413.544H205.072L210.928 429H208.911L207.28 424.752H200.56L198.928 429H196.888ZM200.896 423.192H206.92L203.896 415.248L200.896 423.192ZM213.797 429V413.544H215.765V427.464H223.997V429H213.797ZM226.407 429V413.544H228.375V429H226.407ZM235.903 429V415.104H230.767V413.544H243.007V415.104H237.871V429H235.903ZM250.22 429V423.24L244.7 413.544H246.74L251.204 421.56L255.668 413.544H257.708L252.188 423.24V429H250.22ZM271.15 429V423.24L265.63 413.544H267.67L272.134 421.56L276.598 413.544H278.638L273.118 423.24V429H271.15ZM286.117 429.24C283.701 429.24 281.909 428.608 280.741 427.344C279.573 426.064 278.989 424.04 278.989 421.272C278.989 418.504 279.573 416.488 280.741 415.224C281.909 413.944 283.701 413.304 286.117 413.304C288.549 413.304 290.341 413.944 291.493 415.224C292.661 416.488 293.245 418.504 293.245 421.272C293.245 424.04 292.661 426.064 291.493 427.344C290.341 428.608 288.549 429.24 286.117 429.24ZM286.117 427.56C287.285 427.56 288.245 427.36 288.997 426.96C289.765 426.56 290.333 425.904 290.701 424.992C291.085 424.064 291.277 422.824 291.277 421.272C291.277 419.72 291.085 418.488 290.701 417.576C290.333 416.648 289.765 415.984 288.997 415.584C288.245 415.184 287.285 414.984 286.117 414.984C284.949 414.984 283.981 415.184 283.213 415.584C282.461 415.984 281.893 416.648 281.509 417.576C281.141 418.488 280.957 419.72 280.957 421.272C280.957 422.824 281.141 424.064 281.509 424.992C281.893 425.904 282.461 426.56 283.213 426.96C283.981 427.36 284.949 427.56 286.117 427.56ZM302.517 429.24C300.405 429.24 298.789 428.736 297.669 427.728C296.565 426.72 296.013 425.256 296.013 423.336V413.544H297.981V423.36C297.981 424.768 298.373 425.824 299.157 426.528C299.957 427.216 301.077 427.56 302.517 427.56C303.941 427.56 305.045 427.216 305.829 426.528C306.629 425.824 307.029 424.768 307.029 423.36V413.544H308.997V423.336C308.997 425.256 308.437 426.72 307.317 427.728C306.213 428.736 304.613 429.24 302.517 429.24ZM324.702 429.24C323.038 429.24 321.654 428.928 320.55 428.304C319.462 427.664 318.646 426.776 318.102 425.64C317.558 424.488 317.286 423.144 317.286 421.608C317.286 419.928 317.542 418.464 318.054 417.216C318.566 415.968 319.366 415.008 320.454 414.336C321.542 413.648 322.95 413.304 324.678 413.304C325.574 413.304 326.382 413.368 327.102 413.496C327.838 413.624 328.526 413.8 329.166 414.024V415.752C328.526 415.512 327.846 415.328 327.126 415.2C326.406 415.056 325.646 414.984 324.846 414.984C323.454 414.984 322.35 415.248 321.534 415.776C320.718 416.304 320.134 417.064 319.782 418.056C319.43 419.048 319.254 420.232 319.254 421.608C319.254 423.512 319.702 424.984 320.598 426.024C321.51 427.048 322.942 427.56 324.894 427.56C325.614 427.56 326.342 427.504 327.078 427.392C327.83 427.28 328.526 427.104 329.166 426.864V428.616C328.542 428.808 327.862 428.96 327.126 429.072C326.406 429.184 325.598 429.24 324.702 429.24ZM330.598 429L336.478 413.544H338.782L344.638 429H342.622L340.99 424.752H334.27L332.638 429H330.598ZM334.606 423.192H340.63L337.606 415.248L334.606 423.192ZM347.508 429V413.544H349.284L358.092 425.976V413.544H360.06V429H358.26L349.476 416.592V429H347.508ZM373.129 429V415.104H367.993V413.544H380.233V415.104H375.097V429H373.129ZM382.641 429V413.544H389.433C391.097 413.544 392.305 413.976 393.057 414.84C393.825 415.704 394.209 416.872 394.209 418.344C394.209 419.48 393.929 420.424 393.369 421.176C392.825 421.928 392.009 422.432 390.921 422.688C391.241 422.88 391.481 423.104 391.641 423.36C391.817 423.6 391.993 423.928 392.169 424.344L394.185 429H392.169L390.201 424.512C389.993 424.032 389.737 423.688 389.433 423.48C389.145 423.272 388.625 423.168 387.873 423.168H384.609V429H382.641ZM384.609 421.632H388.881C389.921 421.632 390.737 421.376 391.329 420.864C391.937 420.336 392.241 419.496 392.241 418.344C392.241 416.184 391.209 415.104 389.145 415.104H384.609V421.632ZM403.462 429.24C401.35 429.24 399.734 428.736 398.614 427.728C397.51 426.72 396.958 425.256 396.958 423.336V413.544H398.926V423.36C398.926 424.768 399.318 425.824 400.102 426.528C400.902 427.216 402.022 427.56 403.462 427.56C404.886 427.56 405.99 427.216 406.774 426.528C407.574 425.824 407.974 424.768 407.974 423.36V413.544H409.942V423.336C409.942 425.256 409.382 426.72 408.262 427.728C407.158 428.736 405.558 429.24 403.462 429.24ZM417.716 429.24C415.796 429.24 414.244 429 413.06 428.52V426.768C413.732 427.024 414.444 427.224 415.196 427.368C415.964 427.496 416.748 427.56 417.548 427.56C418.924 427.56 419.956 427.376 420.644 427.008C421.332 426.624 421.676 425.944 421.676 424.968C421.676 424.36 421.532 423.88 421.244 423.528C420.972 423.16 420.516 422.856 419.876 422.616C419.236 422.36 418.38 422.104 417.308 421.848C415.612 421.432 414.42 420.896 413.732 420.24C413.044 419.568 412.7 418.672 412.7 417.552C412.7 416.24 413.172 415.208 414.116 414.456C415.06 413.688 416.5 413.304 418.436 413.304C419.332 413.304 420.164 413.368 420.932 413.496C421.7 413.624 422.292 413.76 422.708 413.904V415.632C422.132 415.424 421.508 415.264 420.836 415.152C420.164 415.04 419.468 414.984 418.748 414.984C417.436 414.984 416.428 415.176 415.724 415.56C415.02 415.944 414.668 416.608 414.668 417.552C414.668 418.08 414.788 418.512 415.028 418.848C415.284 419.168 415.708 419.448 416.3 419.688C416.892 419.912 417.716 420.152 418.772 420.408C420.036 420.712 421.02 421.08 421.724 421.512C422.428 421.928 422.924 422.424 423.212 423C423.5 423.576 423.644 424.232 423.644 424.968C423.644 426.328 423.148 427.384 422.156 428.136C421.164 428.872 419.684 429.24 417.716 429.24ZM429.731 429V415.104H424.595V413.544H436.835V415.104H431.699V429H429.731ZM436.489 431.88L437.161 427.632H438.937L437.929 431.88H436.489ZM451.888 429.24C449.968 429.24 448.416 429 447.232 428.52V426.768C447.904 427.024 448.616 427.224 449.368 427.368C450.136 427.496 450.92 427.56 451.72 427.56C453.096 427.56 454.128 427.376 454.816 427.008C455.504 426.624 455.848 425.944 455.848 424.968C455.848 424.36 455.704 423.88 455.416 423.528C455.144 423.16 454.688 422.856 454.048 422.616C453.408 422.36 452.552 422.104 451.48 421.848C449.784 421.432 448.592 420.896 447.904 420.24C447.216 419.568 446.872 418.672 446.872 417.552C446.872 416.24 447.344 415.208 448.288 414.456C449.232 413.688 450.672 413.304 452.608 413.304C453.504 413.304 454.336 413.368 455.104 413.496C455.872 413.624 456.464 413.76 456.88 413.904V415.632C456.304 415.424 455.68 415.264 455.008 415.152C454.336 415.04 453.64 414.984 452.92 414.984C451.608 414.984 450.6 415.176 449.896 415.56C449.192 415.944 448.84 416.608 448.84 417.552C448.84 418.08 448.96 418.512 449.2 418.848C449.456 419.168 449.88 419.448 450.472 419.688C451.064 419.912 451.888 420.152 452.944 420.408C454.208 420.712 455.192 421.08 455.896 421.512C456.6 421.928 457.096 422.424 457.384 423C457.672 423.576 457.816 424.232 457.816 424.968C457.816 426.328 457.32 427.384 456.328 428.136C455.336 428.872 453.856 429.24 451.888 429.24ZM460.688 429V413.544H471.128V415.104H462.656V420.504H470.264V422.04H462.656V427.464H471.128V429H460.688ZM474 429V413.544H480.792C482.456 413.544 483.664 413.976 484.416 414.84C485.184 415.704 485.568 416.872 485.568 418.344C485.568 419.48 485.288 420.424 484.728 421.176C484.184 421.928 483.368 422.432 482.28 422.688C482.6 422.88 482.84 423.104 483 423.36C483.176 423.6 483.352 423.928 483.528 424.344L485.544 429H483.528L481.56 424.512C481.352 424.032 481.096 423.688 480.792 423.48C480.504 423.272 479.984 423.168 479.232 423.168H475.968V429H474ZM475.968 421.632H480.24C481.28 421.632 482.096 421.376 482.688 420.864C483.296 420.336 483.6 419.496 483.6 418.344C483.6 416.184 482.568 415.104 480.504 415.104H475.968V421.632ZM492.268 429L486.388 413.544H488.428L493.396 427.008L498.388 413.544H500.428L494.572 429H492.268ZM502.946 429V413.544H504.914V429H502.946ZM515.202 429.24C513.538 429.24 512.154 428.928 511.05 428.304C509.962 427.664 509.146 426.776 508.602 425.64C508.058 424.488 507.786 423.144 507.786 421.608C507.786 419.928 508.042 418.464 508.554 417.216C509.066 415.968 509.866 415.008 510.954 414.336C512.042 413.648 513.45 413.304 515.178 413.304C516.074 413.304 516.882 413.368 517.602 413.496C518.338 413.624 519.026 413.8 519.666 414.024V415.752C519.026 415.512 518.346 415.328 517.626 415.2C516.906 415.056 516.146 414.984 515.346 414.984C513.954 414.984 512.85 415.248 512.034 415.776C511.218 416.304 510.634 417.064 510.282 418.056C509.93 419.048 509.754 420.232 509.754 421.608C509.754 423.512 510.202 424.984 511.098 426.024C512.01 427.048 513.442 427.56 515.394 427.56C516.114 427.56 516.842 427.504 517.578 427.392C518.33 427.28 519.026 427.104 519.666 426.864V428.616C519.042 428.808 518.362 428.96 517.626 429.072C516.906 429.184 516.098 429.24 515.202 429.24ZM522.539 429V413.544H532.979V415.104H524.507V420.504H532.115V422.04H524.507V427.464H532.979V429H522.539ZM546.423 429V423.24L540.903 413.544H542.943L547.407 421.56L551.871 413.544H553.911L548.391 423.24V429H546.423ZM561.391 429.24C558.975 429.24 557.183 428.608 556.015 427.344C554.847 426.064 554.263 424.04 554.263 421.272C554.263 418.504 554.847 416.488 556.015 415.224C557.183 413.944 558.975 413.304 561.391 413.304C563.823 413.304 565.615 413.944 566.767 415.224C567.935 416.488 568.519 418.504 568.519 421.272C568.519 424.04 567.935 426.064 566.767 427.344C565.615 428.608 563.823 429.24 561.391 429.24ZM561.391 427.56C562.559 427.56 563.519 427.36 564.271 426.96C565.039 426.56 565.607 425.904 565.975 424.992C566.359 424.064 566.551 422.824 566.551 421.272C566.551 419.72 566.359 418.488 565.975 417.576C565.607 416.648 565.039 415.984 564.271 415.584C563.519 415.184 562.559 414.984 561.391 414.984C560.223 414.984 559.255 415.184 558.487 415.584C557.735 415.984 557.167 416.648 556.783 417.576C556.414 418.488 556.23 419.72 556.23 421.272C556.23 422.824 556.414 424.064 556.783 424.992C557.167 425.904 557.735 426.56 558.487 426.96C559.255 427.36 560.223 427.56 561.391 427.56ZM577.791 429.24C575.679 429.24 574.063 428.736 572.943 427.728C571.839 426.72 571.287 425.256 571.287 423.336V413.544H573.255V423.36C573.255 424.768 573.647 425.824 574.431 426.528C575.231 427.216 576.351 427.56 577.791 427.56C579.215 427.56 580.319 427.216 581.103 426.528C581.903 425.824 582.303 424.768 582.303 423.36V413.544H584.271V423.336C584.271 425.256 583.711 426.72 582.591 427.728C581.487 428.736 579.887 429.24 577.791 429.24ZM599.975 429.24C598.311 429.24 596.927 428.928 595.823 428.304C594.735 427.664 593.919 426.776 593.375 425.64C592.831 424.488 592.559 423.144 592.559 421.608C592.559 419.928 592.815 418.464 593.327 417.216C593.839 415.968 594.639 415.008 595.727 414.336C596.815 413.648 598.223 413.304 599.951 413.304C600.847 413.304 601.655 413.368 602.375 413.496C603.111 413.624 603.799 413.8 604.439 414.024V415.752C603.799 415.512 603.119 415.328 602.399 415.2C601.679 415.056 600.919 414.984 600.119 414.984C598.727 414.984 597.623 415.248 596.807 415.776C595.991 416.304 595.407 417.064 595.055 418.056C594.703 419.048 594.527 420.232 594.527 421.608C594.527 423.512 594.975 424.984 595.871 426.024C596.783 427.048 598.215 427.56 600.167 427.56C600.887 427.56 601.615 427.504 602.351 427.392C603.103 427.28 603.799 427.104 604.439 426.864V428.616C603.815 428.808 603.135 428.96 602.399 429.072C601.679 429.184 600.871 429.24 599.975 429.24ZM605.872 429L611.752 413.544H614.056L619.912 429H617.896L616.264 424.752H609.544L607.912 429H605.872ZM609.88 423.192H615.904L612.88 415.248L609.88 423.192ZM622.782 429V413.544H624.558L633.366 425.976V413.544H635.334V429H633.534L624.75 416.592V429H622.782ZM648.763 429.24C646.843 429.24 645.291 429 644.107 428.52V426.768C644.779 427.024 645.491 427.224 646.243 427.368C647.011 427.496 647.795 427.56 648.595 427.56C649.971 427.56 651.003 427.376 651.691 427.008C652.379 426.624 652.723 425.944 652.723 424.968C652.723 424.36 652.579 423.88 652.291 423.528C652.019 423.16 651.563 422.856 650.923 422.616C650.283 422.36 649.427 422.104 648.355 421.848C646.659 421.432 645.467 420.896 644.779 420.24C644.091 419.568 643.747 418.672 643.747 417.552C643.747 416.24 644.219 415.208 645.163 414.456C646.107 413.688 647.547 413.304 649.483 413.304C650.379 413.304 651.211 413.368 651.979 413.496C652.747 413.624 653.339 413.76 653.755 413.904V415.632C653.179 415.424 652.555 415.264 651.883 415.152C651.211 415.04 650.515 414.984 649.795 414.984C648.483 414.984 647.475 415.176 646.771 415.56C646.067 415.944 645.715 416.608 645.715 417.552C645.715 418.08 645.835 418.512 646.075 418.848C646.331 419.168 646.755 419.448 647.347 419.688C647.939 419.912 648.763 420.152 649.819 420.408C651.083 420.712 652.067 421.08 652.771 421.512C653.475 421.928 653.971 422.424 654.259 423C654.547 423.576 654.691 424.232 654.691 424.968C654.691 426.328 654.195 427.384 653.203 428.136C652.211 428.872 650.731 429.24 648.763 429.24ZM657.563 429V413.544H668.003V415.104H659.531V420.504H667.139V422.04H659.531V427.464H668.003V429H657.563ZM670.875 429V413.544H681.315V415.104H672.843V420.504H680.451V422.04H672.843V427.464H681.315V429H670.875Z" fill="#4B4238"/>
</svg>
