<svg width="300" height="200" viewBox="0 0 300 200" fill="none" xmlns="http://www.w3.org/2000/svg">
<rect width="300" height="200" fill="url(#paint0_linear_646_8570)"/>
<path d="M53.996 115V114.26L58.51 113.52V64.088L53.996 63.348V62.608H71.608V63.348L67.02 64.088V113.89H81.672C82.8067 113.89 83.7933 113.569 84.632 112.928C85.52 112.287 86.2847 111.275 86.926 109.894C87.5673 108.513 88.1347 106.687 88.628 104.418L90.034 95.094H91.292L93.438 115H53.996ZM124.819 115.592C117.715 115.592 112.338 113.643 108.687 109.746C105.086 105.849 103.285 100.101 103.285 92.504V64.236L98.7712 63.348V62.608H116.679V63.348L111.795 64.236V91.616C111.795 98.4733 113.127 103.653 115.791 107.156C118.505 110.659 122.501 112.41 127.779 112.41C132.565 112.41 136.166 110.831 138.583 107.674C141.05 104.467 142.283 99.756 142.283 93.54V82.218C142.283 80.0967 142.037 78.0493 141.543 76.076C141.05 74.1027 140.31 72.302 139.323 70.674C138.337 69.046 137.128 67.6153 135.697 66.382C134.267 65.0993 132.639 64.088 130.813 63.348V62.608H148.795V63.348L143.615 64.236V92.134C143.615 99.83 142.061 105.676 138.953 109.672C135.845 113.619 131.134 115.592 124.819 115.592ZM184.93 115V114.26L190.258 113.298L156.884 64.31L151.778 63.348V62.608H171.906V63.348L166.652 64.236L200.1 113.298L205.132 114.26V115H184.93ZM151.556 115V114.26L156.662 113.372L174.57 89.544L176.42 92.356H173.904L167.096 101.68C166.158 102.913 165.492 104.048 165.098 105.084C164.703 106.12 164.506 107.082 164.506 107.97C164.506 109.647 165.196 111.053 166.578 112.188C168.008 113.273 170.105 113.964 172.868 114.26V115H151.556ZM180.49 85.03H182.488L189.592 75.484C190.726 74.152 191.516 72.9927 191.96 72.006C192.404 71.0193 192.626 70.156 192.626 69.416C192.626 68.3307 192.33 67.3687 191.738 66.53C191.146 65.6913 190.258 65.0007 189.074 64.458C187.939 63.866 186.484 63.496 184.708 63.348V62.608H205.206V63.348L200.692 64.236L182.118 87.472L180.49 85.03ZM68.2357 141.285C67.9064 141.285 67.596 141.196 67.3047 141.019C67.026 140.854 66.741 140.569 66.4497 140.164C66.1584 139.759 65.829 139.208 65.4617 138.511C65.2337 138.068 64.993 137.656 64.7397 137.276C64.499 136.896 64.233 136.541 63.9417 136.212C63.663 135.883 63.3464 135.579 62.9917 135.3C62.6497 135.009 62.2697 134.73 61.8517 134.464H60.8827V140.563L62.0417 140.81V141H57.5387V140.81L58.6977 140.563V127.985L57.5387 127.738V127.548H60.8827V134.198C61.0854 134.198 61.2817 134.192 61.4717 134.179C61.6617 134.166 61.8517 134.154 62.0417 134.141C62.4344 134.103 62.808 133.976 63.1627 133.761C63.5174 133.546 63.8467 133.273 64.1507 132.944C64.4674 132.602 64.7524 132.241 65.0057 131.861C65.221 131.506 65.4047 131.152 65.5567 130.797C65.7214 130.43 65.8417 130.081 65.9177 129.752C66.0064 129.423 66.0507 129.131 66.0507 128.878C66.0507 128.536 65.9367 128.264 65.7087 128.061C65.4807 127.846 65.1324 127.738 64.6637 127.738V127.548H69.2237V127.738L68.1027 127.985C68.1027 128.403 68.0267 128.846 67.8747 129.315C67.7227 129.771 67.5137 130.233 67.2477 130.702C66.9944 131.171 66.684 131.608 66.3167 132.013C65.9494 132.431 65.544 132.798 65.1007 133.115C64.67 133.432 64.2457 133.691 63.8277 133.894C63.4224 134.097 63.0424 134.223 62.6877 134.274V134.369C63.2704 134.394 63.7834 134.47 64.2267 134.597C64.6827 134.724 65.088 134.914 65.4427 135.167C65.7974 135.408 66.114 135.724 66.3927 136.117C66.6714 136.497 66.9374 136.959 67.1907 137.504C67.52 138.239 67.805 138.828 68.0457 139.271C68.2864 139.702 68.5144 140.031 68.7297 140.259C68.945 140.474 69.154 140.614 69.3567 140.677C69.4834 140.715 69.6164 140.715 69.7557 140.677V140.867C69.591 140.994 69.42 141.082 69.2427 141.133C69.0654 141.196 68.888 141.234 68.7107 141.247C68.546 141.272 68.3877 141.285 68.2357 141.285ZM75.4938 127.548V127.738L74.3348 127.985V140.563L75.4938 140.81V141H70.9908V140.81L72.1498 140.563V127.985L70.9908 127.738V127.548H75.4938ZM81.1126 141V140.81L82.2716 140.563V127.833H80.3906C80.0486 127.833 79.7446 127.909 79.4786 128.061C79.2253 128.2 79.0163 128.435 78.8516 128.764C78.687 129.093 78.5603 129.537 78.4716 130.094L78.0726 132.602H77.7496L77.1986 127.548H89.5486L88.9976 132.602H88.6746L88.2756 130.17C88.1996 129.587 88.0793 129.131 87.9146 128.802C87.75 128.46 87.5346 128.213 87.2686 128.061C87.0153 127.909 86.7113 127.833 86.3566 127.833H84.4566V140.563L85.6346 140.81V141H81.1126ZM102.622 138.473C102.216 139.119 101.735 139.651 101.178 140.069C100.633 140.474 100.031 140.778 99.3727 140.981C98.7267 141.184 98.0427 141.285 97.3207 141.285C96.396 141.285 95.5474 141.133 94.7747 140.829C94.0147 140.512 93.3497 140.056 92.7797 139.461C92.2224 138.853 91.7917 138.125 91.4877 137.276C91.1837 136.415 91.0317 135.433 91.0317 134.331C91.0317 133.267 91.1837 132.304 91.4877 131.443C91.8044 130.582 92.2477 129.841 92.8177 129.22C93.4004 128.587 94.0907 128.105 94.8887 127.776C95.6994 127.434 96.605 127.263 97.6057 127.263C98.3277 127.263 99.0054 127.333 99.6387 127.472C100.272 127.611 100.842 127.808 101.349 128.061C101.868 128.314 102.299 128.606 102.641 128.935L101.653 133.875H101.311L101.026 131.12C100.95 130.297 100.76 129.625 100.456 129.106C100.152 128.574 99.7274 128.181 99.1827 127.928C98.6507 127.662 97.9794 127.529 97.1687 127.529C96.586 127.529 96.0477 127.687 95.5537 128.004C95.0597 128.321 94.6354 128.764 94.2807 129.334C93.9387 129.891 93.6727 130.544 93.4827 131.291C93.2927 132.038 93.1977 132.843 93.1977 133.704C93.1977 134.629 93.3054 135.49 93.5207 136.288C93.7487 137.086 94.0844 137.783 94.5277 138.378C94.971 138.961 95.5284 139.417 96.1997 139.746C96.871 140.075 97.6564 140.24 98.5557 140.24C99.3284 140.24 100.05 140.075 100.722 139.746C101.393 139.417 101.963 138.948 102.432 138.34L102.622 138.473ZM118.117 127.548V127.738L116.958 127.985V140.563L118.117 140.81V141H113.69V140.81L114.773 140.563V127.985L113.69 127.738V127.548H118.117ZM109.206 127.548V127.738L108.123 127.985V140.563L109.206 140.81V141H104.779V140.81L105.938 140.563V127.985L104.779 127.738V127.548H109.206ZM114.906 134.293V134.711H107.971V134.521L114.906 134.293ZM120.161 141V140.81L121.32 140.525V128.023L120.161 127.738V127.548H130.877L130.231 132.298H129.984L129.376 129.239C129.262 128.745 129.065 128.39 128.787 128.175C128.508 127.947 128.166 127.833 127.761 127.833H123.505V134.027H125.709C125.886 134.027 126.051 133.983 126.203 133.894C126.355 133.793 126.488 133.672 126.602 133.533C126.779 133.33 126.918 133.045 127.02 132.678C127.134 132.311 127.203 131.912 127.229 131.481H127.419V136.212H127.229L125.956 134.274H123.505V140.715H127.951C128.381 140.715 128.742 140.569 129.034 140.278C129.325 139.987 129.528 139.55 129.642 138.967L129.984 136.041H130.231L130.877 141H120.161ZM132.979 141V140.81L134.309 140.563V129.277C134.309 128.986 134.189 128.701 133.948 128.422C133.707 128.131 133.384 127.903 132.979 127.738V127.548H135.943L144.493 138.416H144.74V132.355C144.74 131.912 144.702 131.487 144.626 131.082C144.55 130.677 144.423 130.303 144.246 129.961C144.081 129.606 143.872 129.283 143.619 128.992C143.366 128.701 143.062 128.454 142.707 128.251C142.365 128.036 141.972 127.865 141.529 127.738V127.548H146.469V127.738L145.025 127.985V141H143.847L134.841 129.6H134.594V135.338C134.594 135.87 134.632 136.37 134.708 136.839C134.797 137.295 134.93 137.726 135.107 138.131C135.284 138.524 135.512 138.891 135.791 139.233C136.07 139.562 136.405 139.86 136.798 140.126C137.191 140.392 137.653 140.62 138.185 140.81V141H132.979ZM166.264 138.473C165.859 139.119 165.378 139.651 164.82 140.069C164.276 140.474 163.674 140.778 163.015 140.981C162.369 141.184 161.685 141.285 160.963 141.285C160.039 141.285 159.19 141.133 158.417 140.829C157.657 140.512 156.992 140.056 156.422 139.461C155.865 138.853 155.434 138.125 155.13 137.276C154.826 136.415 154.674 135.433 154.674 134.331C154.674 133.267 154.826 132.304 155.13 131.443C155.447 130.582 155.89 129.841 156.46 129.22C157.043 128.587 157.733 128.105 158.531 127.776C159.342 127.434 160.248 127.263 161.248 127.263C161.97 127.263 162.648 127.333 163.281 127.472C163.915 127.611 164.485 127.808 164.991 128.061C165.511 128.314 165.941 128.606 166.283 128.935L165.295 133.875H164.953L164.668 131.12C164.592 130.297 164.402 129.625 164.098 129.106C163.794 128.574 163.37 128.181 162.825 127.928C162.293 127.662 161.622 127.529 160.811 127.529C160.229 127.529 159.69 127.687 159.196 128.004C158.702 128.321 158.278 128.764 157.923 129.334C157.581 129.891 157.315 130.544 157.125 131.291C156.935 132.038 156.84 132.843 156.84 133.704C156.84 134.629 156.948 135.49 157.163 136.288C157.391 137.086 157.727 137.783 158.17 138.378C158.614 138.961 159.171 139.417 159.842 139.746C160.514 140.075 161.299 140.24 162.198 140.24C162.971 140.24 163.693 140.075 164.364 139.746C165.036 139.417 165.606 138.948 166.074 138.34L166.264 138.473ZM167.643 141V140.81L168.821 140.563L173.913 127.548H175.357L180.373 140.563L181.532 140.81V141H176.687V140.848L178.036 140.582L173.723 129.315H173.514L171.158 135.585C170.93 136.155 170.752 136.7 170.626 137.219C170.512 137.738 170.455 138.194 170.455 138.587C170.455 139.018 170.531 139.404 170.683 139.746C170.847 140.088 171.107 140.354 171.462 140.544C171.816 140.721 172.279 140.81 172.849 140.81V141H167.643ZM170.911 135.528V135.338L176.212 135.129V135.528H170.911ZM189.299 127.548C190.287 127.548 191.111 127.668 191.769 127.909C192.441 128.137 192.941 128.479 193.27 128.935C193.612 129.391 193.783 129.967 193.783 130.664C193.783 131.196 193.663 131.658 193.422 132.051C193.194 132.444 192.897 132.767 192.529 133.02C192.162 133.273 191.75 133.47 191.294 133.609C190.838 133.736 190.389 133.812 189.945 133.837V133.989C190.515 134.002 191.073 134.078 191.617 134.217C192.162 134.344 192.65 134.54 193.08 134.806C193.511 135.072 193.853 135.42 194.106 135.851C194.36 136.269 194.486 136.788 194.486 137.409C194.486 138.017 194.372 138.549 194.144 139.005C193.929 139.448 193.606 139.822 193.175 140.126C192.745 140.417 192.206 140.639 191.56 140.791C190.914 140.93 190.161 141 189.299 141H182.801V140.81L183.96 140.525V128.023L182.801 127.738V127.548H189.299ZM188.824 127.852C188.204 127.852 187.672 127.865 187.228 127.89C186.785 127.903 186.424 127.934 186.145 127.985V140.582C186.627 140.671 187.545 140.715 188.9 140.715C189.622 140.715 190.243 140.601 190.762 140.373C191.294 140.145 191.7 139.778 191.978 139.271C192.27 138.752 192.415 138.087 192.415 137.276C192.415 136.199 192.124 135.408 191.541 134.901C190.971 134.382 190.047 134.109 188.767 134.084L186.012 134.046V133.837L188.767 133.799C189.477 133.786 190.053 133.653 190.496 133.4C190.952 133.134 191.288 132.767 191.503 132.298C191.731 131.829 191.845 131.285 191.845 130.664C191.845 129.752 191.592 129.055 191.085 128.574C190.579 128.093 189.825 127.852 188.824 127.852ZM200.886 127.548V127.738L199.727 127.985V140.563L200.886 140.81V141H196.383V140.81L197.542 140.563V127.985L196.383 127.738V127.548H200.886ZM202.8 141V140.81L204.13 140.563V129.277C204.13 128.986 204.01 128.701 203.769 128.422C203.529 128.131 203.206 127.903 202.8 127.738V127.548H205.764L214.314 138.416H214.561V132.355C214.561 131.912 214.523 131.487 214.447 131.082C214.371 130.677 214.245 130.303 214.067 129.961C213.903 129.606 213.694 129.283 213.44 128.992C213.187 128.701 212.883 128.454 212.528 128.251C212.186 128.036 211.794 127.865 211.35 127.738V127.548H216.29V127.738L214.846 127.985V141H213.668L204.662 129.6H204.415V135.338C204.415 135.87 204.453 136.37 204.529 136.839C204.618 137.295 204.751 137.726 204.928 138.131C205.106 138.524 205.334 138.891 205.612 139.233C205.891 139.562 206.227 139.86 206.619 140.126C207.012 140.392 207.474 140.62 208.006 140.81V141H202.8ZM217.907 141V140.81L219.066 140.525V128.023L217.907 127.738V127.548H228.623L227.977 132.298H227.73L227.122 129.239C227.008 128.745 226.812 128.39 226.533 128.175C226.254 127.947 225.912 127.833 225.507 127.833H221.251V134.027H223.455C223.632 134.027 223.797 133.983 223.949 133.894C224.101 133.793 224.234 133.672 224.348 133.533C224.525 133.33 224.665 133.045 224.766 132.678C224.88 132.311 224.95 131.912 224.975 131.481H225.165V136.212H224.975L223.702 134.274H221.251V140.715H225.697C226.128 140.715 226.489 140.569 226.78 140.278C227.071 139.987 227.274 139.55 227.388 138.967L227.73 136.041H227.977L228.623 141H217.907ZM234.43 141V140.81L235.589 140.563V127.833H233.708C233.366 127.833 233.062 127.909 232.796 128.061C232.543 128.2 232.334 128.435 232.169 128.764C232.004 129.093 231.878 129.537 231.789 130.094L231.39 132.602H231.067L230.516 127.548H242.866L242.315 132.602H241.992L241.593 130.17C241.517 129.587 241.397 129.131 241.232 128.802C241.067 128.46 240.852 128.213 240.586 128.061C240.333 127.909 240.029 127.833 239.674 127.833H237.774V140.563L238.952 140.81V141H234.43ZM249.966 141.285C249.371 141.285 248.756 141.222 248.123 141.095C247.502 140.981 246.894 140.816 246.299 140.601C245.704 140.373 245.146 140.101 244.627 139.784L245.007 135.509H245.292L246.014 138.093C246.153 138.714 246.413 139.246 246.793 139.689C247.186 140.12 247.667 140.449 248.237 140.677C248.82 140.892 249.472 141 250.194 141C250.853 141 251.416 140.911 251.885 140.734C252.354 140.557 252.708 140.297 252.949 139.955C253.202 139.613 253.329 139.214 253.329 138.758C253.329 138.264 253.209 137.827 252.968 137.447C252.727 137.067 252.322 136.7 251.752 136.345C251.182 135.978 250.409 135.591 249.434 135.186C248.269 134.654 247.344 134.166 246.66 133.723C245.976 133.267 245.488 132.805 245.197 132.336C244.906 131.867 244.76 131.348 244.76 130.778C244.76 130.259 244.88 129.784 245.121 129.353C245.362 128.922 245.704 128.555 246.147 128.251C246.603 127.934 247.148 127.694 247.781 127.529C248.414 127.352 249.13 127.263 249.928 127.263C250.637 127.263 251.309 127.333 251.942 127.472C252.575 127.599 253.152 127.776 253.671 128.004C254.19 128.232 254.627 128.492 254.982 128.783L254.355 132.754H254.089L253.747 131.063C253.557 130.24 253.285 129.568 252.93 129.049C252.575 128.53 252.132 128.15 251.6 127.909C251.081 127.668 250.46 127.548 249.738 127.548C249.041 127.548 248.446 127.637 247.952 127.814C247.458 127.979 247.078 128.219 246.812 128.536C246.546 128.853 246.413 129.239 246.413 129.695C246.413 130.151 246.546 130.569 246.812 130.949C247.091 131.329 247.547 131.715 248.18 132.108C248.826 132.501 249.694 132.931 250.783 133.4C251.644 133.755 252.36 134.097 252.93 134.426C253.513 134.755 253.981 135.085 254.336 135.414C254.691 135.743 254.944 136.092 255.096 136.459C255.261 136.826 255.343 137.232 255.343 137.675C255.343 138.169 255.248 138.612 255.058 139.005C254.868 139.398 254.602 139.74 254.26 140.031C253.918 140.31 253.519 140.544 253.063 140.734C252.62 140.924 252.132 141.063 251.6 141.152C251.081 141.241 250.536 141.285 249.966 141.285Z" fill="#FDF2F6"/>
<circle cx="234" cy="101" r="3" fill="white"/>
<circle cx="234" cy="78" r="3" fill="white"/>
<path d="M213 110.5H210.5V115.5H213V110.5ZM255 115.5C256.381 115.5 257.5 114.381 257.5 113C257.5 111.619 256.381 110.5 255 110.5V115.5ZM213 115.5H255V110.5H213V115.5Z" fill="white"/>
<path d="M213 86.5H210.5V91.5H213V86.5ZM255 91.5C256.381 91.5 257.5 90.3807 257.5 89C257.5 87.6193 256.381 86.5 255 86.5V91.5ZM213 91.5H255V86.5H213V91.5Z" fill="white"/>
<path d="M213 63.5H210.5V68.5H213V63.5ZM255 68.5C256.381 68.5 257.5 67.3807 257.5 66C257.5 64.6193 256.381 63.5 255 63.5V68.5ZM213 68.5H255V63.5H213V68.5Z" fill="white"/>
<defs>
<linearGradient id="paint0_linear_646_8570" x1="0" y1="100" x2="300" y2="100" gradientUnits="userSpaceOnUse">
<stop stop-color="#4F0816"/>
<stop offset="1" stop-color="#841730"/>
</linearGradient>
</defs>
</svg>
